<svg id="Layer_1" data-name="Layer 1" xmlns="http://www.w3.org/2000/svg" viewBox="0 0 1224 792"><defs><style>.cls-1{fill:#f2f2f2;}.cls-2,.cls-6{fill:#3fa9f5;}.cls-3{fill:#a6ddff;}.cls-4{fill:#fff;}.cls-16,.cls-5{fill:#2e3192;}.cls-6{font-size:62.06px;letter-spacing:-0.05em;}.cls-13,.cls-16,.cls-17,.cls-6{font-family:ObjectSans-Regular, Object Sans;}.cls-7{font-size:20.25px;font-family:WorkSans-Regular, Work Sans;}.cls-13,.cls-7{fill:#b3b3b3;}.cls-8{letter-spacing:-0.07em;}.cls-9{letter-spacing:-0.01em;}.cls-10{letter-spacing:0em;}.cls-11{letter-spacing:-0.02em;}.cls-12{fill:#b8dff6;}.cls-13,.cls-17{font-size:21px;}.cls-13,.cls-19{letter-spacing:-0.01em;}.cls-14{letter-spacing:-0.03em;}.cls-15{letter-spacing:-0.03em;}.cls-16{font-size:33.05px;letter-spacing:-0.01em;}.cls-17{fill:#999;letter-spacing:-0.1em;}.cls-18{letter-spacing:-0.02em;}.cls-20{fill:none;stroke:#b3b3b3;stroke-miterlimit:10;opacity:0.57;}</style></defs><title>Artboard 2</title><path class="cls-1" d="M437.12,154.77c0,.14,0,.28,0,.42,0-.14,0-.28,0-.42Z"/><path class="cls-1" d="M349.7,154.77c0,.14,0,.28,0,.42,0-.14,0-.28,0-.42Z"/><path class="cls-1" d="M524.55,154.77c0,.14,0,.28,0,.42,0-.14,0-.28,0-.42Z"/><path class="cls-1" d="M87.41,154.77c0,.14,0,.28,0,.42,0-.14,0-.28,0-.42Z"/><path class="cls-1" d="M174.84,154.77c0,.14,0,.28,0,.42,0-.14,0-.28,0-.42Z"/><path class="cls-1" d="M0,154.77v.42c0-.14,0-.28,0-.42Z"/><path class="cls-1" d="M612,154.77c0,.14,0,.28,0,.42,0-.14,0-.28,0-.42Z"/><path class="cls-1" d="M262.27,154.77c0,.14,0,.28,0,.42,0-.14,0-.28,0-.42Z"/><path class="cls-1" d="M1136.55,154.77c0,.14,0,.28,0,.42,0-.14,0-.28,0-.42Z"/><path class="cls-1" d="M699.41,154.77c0,.14,0,.28,0,.42,0-.14,0-.28,0-.42Z"/><path class="cls-1" d="M1049.12,154.77c0,.14,0,.28,0,.42,0-.14,0-.28,0-.42Z"/><path class="cls-1" d="M1224,154.77c0,.14,0,.28,0,.42v-.42Z"/><path class="cls-1" d="M1180.29,180.45c-18.92,0-35-6.94-41.11-16.66a3.07,3.07,0,0,0-5.21,0c-6.09,9.72-22.2,16.66-41.11,16.66s-35-6.94-41.11-16.66a3.07,3.07,0,0,0-5.21,0c-6.09,9.72-22.2,16.66-41.11,16.66s-35-6.94-41.11-16.66a3.07,3.07,0,0,0-5.21,0c-6.09,9.72-22.2,16.66-41.11,16.66s-35-6.94-41.11-16.66a3.07,3.07,0,0,0-5.21,0c-6.09,9.72-22.2,16.66-41.11,16.66s-35-6.94-41.11-16.66a3.07,3.07,0,0,0-5.21,0c-6.09,9.72-22.2,16.66-41.11,16.66s-35-6.94-41.11-16.66a3.07,3.07,0,0,0-5.21,0c-6.09,9.72-22.19,16.66-41.11,16.66s-35-6.94-41.11-16.66a3.06,3.06,0,0,0-5.2,0c-6.1,9.72-22.2,16.66-41.11,16.66s-35-6.94-41.11-16.66a3.07,3.07,0,0,0-5.21,0c-6.09,9.72-22.2,16.66-41.11,16.66s-35-6.94-41.11-16.66a3.07,3.07,0,0,0-5.21,0c-6.09,9.72-22.2,16.66-41.11,16.66s-35-6.94-41.11-16.66a3.07,3.07,0,0,0-5.21,0c-6.09,9.72-22.2,16.66-41.11,16.66s-35-6.94-41.11-16.66a3.07,3.07,0,0,0-5.21,0c-6.09,9.72-22.2,16.66-41.11,16.66s-35-6.94-41.11-16.66a3.07,3.07,0,0,0-5.21,0c-6.09,9.72-22.2,16.66-41.11,16.66s-35-6.94-41.11-16.66a3.07,3.07,0,0,0-5.21,0c-6.09,9.72-22.19,16.66-41.11,16.66C19.57,180.45,0,169.14,0,155.19V788.94A3.06,3.06,0,0,0,3.06,792H1220.94a3.06,3.06,0,0,0,3.06-3.06V155.19C1224,169.14,1204.43,180.45,1180.29,180.45Z"/><path class="cls-1" d="M961.7,154.77c0,.14,0,.28,0,.42,0-.14,0-.28,0-.42Z"/><path class="cls-1" d="M786.84,154.77c0,.14,0,.28,0,.42,0-.14,0-.28,0-.42Z"/><path class="cls-1" d="M874.27,154.77c0,.14,0,.28,0,.42,0-.14,0-.28,0-.42Z"/><path class="cls-2" d="M353.87,376.39a2.63,2.63,0,0,1,2.57,3.05,21.21,21.21,0,0,1-21,18.17h0a21.22,21.22,0,0,1-21-18.35,2.58,2.58,0,0,1,2.59-2.87Z"/><path class="cls-2" d="M390,252.72H364.82a12.22,12.22,0,0,0-10.18,5.45,12.21,12.21,0,0,0-10.17-5.45H319.29a2.54,2.54,0,0,0-2.55,2.83,20.87,20.87,0,0,0,20.68,18h0a20.72,20.72,0,0,0,11.22-3.31c-2.61,6.1-5.94,13.32-8.52,16.93-9.07,12.7-24.88,10.89-24.88,10.89H179.7a13.81,13.81,0,0,0-13.82,13.81h0a91.87,91.87,0,0,0,91.87,91.87h17.73a83.26,83.26,0,0,0,36-8.06c31.52-15,52.28-49,52.28-86.73,0-15.31-.6-27.63-2.06-38.11a20.67,20.67,0,0,0,10.24,2.71h0a20.87,20.87,0,0,0,20.66-17.87A2.59,2.59,0,0,0,390,252.72Z"/><path class="cls-3" d="M257.1,340c-6.28-17.07-17.73-22.43-27.57-23.78a36.47,36.47,0,0,0-17.69,1.51c-5.9,2.12-15.13,7.56-25.87,7.56-17,0-20-9.07-20-9.07h0c2.48,51.82,43.56,87.12,91.87,87.53h17.73a83.26,83.26,0,0,0,36-8.06C290.55,399.49,271.43,379,257.1,340Z"/><path class="cls-4" d="M186,325.32c10.74,0,20-5.44,25.87-7.56a33.4,33.4,0,0,1,10.43-1.92v0l-56.26.44S169,325.32,186,325.32Z"/><path class="cls-5" d="M292,354.62a2.72,2.72,0,0,1-2.73-2.72,4.08,4.08,0,1,0-8.16,0,2.73,2.73,0,0,1-5.45,0,9.53,9.53,0,1,1,19.06,0A2.72,2.72,0,0,1,292,354.62Z"/><text class="cls-6" transform="translate(188.92 475.04)">whale</text><text class="cls-6" transform="translate(995.86 95.77)">whale</text><circle class="cls-2" cx="888.2" cy="313.44" r="43.62"/><text class="cls-7" transform="translate(837.81 394.15)">#3<tspan class="cls-8" x="24.76" y="0">F</tspan><tspan x="35.7" y="0">A9F5</tspan></text><circle class="cls-3" cx="761.17" cy="313.44" r="43.62"/><text class="cls-7" transform="translate(717.55 394.15)">#<tspan class="cls-9" x="12.96" y="0">A</tspan><tspan class="cls-10" x="26.12" y="0">6DDF</tspan><tspan class="cls-11" x="80.19" y="0">F</tspan></text><circle class="cls-5" cx="1015.08" cy="313.44" r="43.62"/><text class="cls-7" transform="translate(971.46 394.15)">#2E3192</text><circle class="cls-12" cx="637.73" cy="313.44" r="43.62"/><text class="cls-7" transform="translate(594.11 394.15)">#B8DFF6</text><text class="cls-13" transform="translate(591.58 468.86)">Obje<tspan class="cls-14" x="50.17" y="0">c</tspan><tspan x="62.39" y="0">t Sans (</tspan><tspan class="cls-15" x="136.1" y="0">r</tspan><tspan x="143.74" y="0">egular)</tspan></text><text class="cls-16" transform="translate(286.9 529.91)">Title</text><text class="cls-17" transform="translate(311.57 567.58)">T<tspan class="cls-18" x="10.14" y="0">e</tspan><tspan class="cls-19" x="23.04" y="0">xt</tspan></text><line class="cls-20" x1="386.82" y1="459.86" x2="562.95" y2="459.86"/><text class="cls-13" transform="translate(591.58 526.74)">Obje<tspan class="cls-14" x="50.17" y="0">c</tspan><tspan x="62.39" y="0">t Sans (</tspan><tspan class="cls-15" x="136.1" y="0">r</tspan><tspan x="143.74" y="0">egular)</tspan></text><line class="cls-20" x1="386.82" y1="517.74" x2="562.95" y2="517.74"/><text class="cls-13" transform="translate(591.58 568.58)">Obje<tspan class="cls-14" x="50.17" y="0">c</tspan><tspan x="62.39" y="0">t Sans (</tspan><tspan class="cls-15" x="136.1" y="0">r</tspan><tspan x="143.74" y="0">egular)</tspan></text><line class="cls-20" x1="386.82" y1="559.58" x2="562.95" y2="559.58"/></svg>