<svg xmlns="http://www.w3.org/2000/svg" xmlns:xlink="http://www.w3.org/1999/xlink" width="1920" height="1080" viewBox="0 0 1920 1080">
  <defs>
    <filter id="Path_666" x="858.01" y="548.04" width="26.129" height="27.482" filterUnits="userSpaceOnUse">
      <feOffset dy="1" input="SourceAlpha"/>
      <feGaussianBlur stdDeviation="1" result="blur"/>
      <feFlood flood-opacity="0.4"/>
      <feComposite operator="in" in2="blur"/>
      <feComposite in="SourceGraphic"/>
    </filter>
    <clipPath id="clip-Web_1920_56">
      <rect width="1920" height="1080"/>
    </clipPath>
  </defs>
  <g id="Web_1920_56" data-name="Web 1920 – 56" clip-path="url(#clip-Web_1920_56)">
    <rect width="1920" height="1080" fill="#fff"/>
    <g id="Group_6" data-name="Group 6" transform="translate(0 504.227)" opacity="0.7">
      <path id="Path_6" data-name="Path 6" d="M437.125,154.773c.006.216.028.431.028.649,0-.218.022-.433.028-.649Z" transform="translate(248.561 0)" fill="#a6ddff"/>
      <path id="Path_7" data-name="Path 7" d="M349.7,154.773c.006.216.028.431.028.649,0-.218.024-.433.028-.649Z" transform="translate(198.847 0)" fill="#a6ddff"/>
      <path id="Path_8" data-name="Path 8" d="M524.553,154.773c.006.216.028.431.028.649,0-.218.024-.433.03-.649Z" transform="translate(298.275 0)" fill="#a6ddff"/>
      <path id="Path_9" data-name="Path 9" d="M87.41,154.773c.006.216.03.431.03.649,0-.218.022-.433.028-.649Z" transform="translate(49.704 0)" fill="#a6ddff"/>
      <path id="Path_10" data-name="Path 10" d="M174.839,154.773c.006.216.028.431.028.649,0-.218.022-.433.028-.649Z" transform="translate(99.418 0)" fill="#a6ddff"/>
      <path id="Path_11" data-name="Path 11" d="M0,154.773v.649c0-.218.022-.433.028-.649Z" transform="translate(0 0)" fill="#a6ddff"/>
      <path id="Path_12" data-name="Path 12" d="M611.982,154.773c.006.216.028.431.028.649,0-.218.022-.433.028-.649Z" transform="translate(347.99 0)" fill="#a6ddff"/>
      <path id="Path_13" data-name="Path 13" d="M262.268,154.773c.006.216.028.431.028.649,0-.218.022-.433.028-.649Z" transform="translate(149.133 0)" fill="#a6ddff"/>
      <path id="Path_14" data-name="Path 14" d="M1136.553,154.773c.006.216.028.431.028.649,0-.218.024-.433.03-.649Z" transform="translate(646.275 0)" fill="#a6ddff"/>
      <path id="Path_15" data-name="Path 15" d="M699.41,154.773c.006.216.03.431.03.649,0-.218.022-.433.028-.649Z" transform="translate(397.704 0)" fill="#a6ddff"/>
      <path id="Path_16" data-name="Path 16" d="M1049.125,154.773c.006.216.028.431.028.649,0-.218.022-.433.028-.649Z" transform="translate(596.561 0)" fill="#a6ddff"/>
      <path id="Path_17" data-name="Path 17" d="M1223.982,154.773c.006.216.028.431.028.649v-.649Z" transform="translate(695.99 0)" fill="#a6ddff"/>
      <path id="Path_18" data-name="Path 18" d="M1851.429,194.811c-29.666,0-54.932-10.885-64.488-26.121a4.8,4.8,0,0,0-8.168,0c-9.556,15.236-34.822,26.121-64.488,26.121s-54.93-10.885-64.486-26.121a4.8,4.8,0,0,0-8.169,0c-9.556,15.236-34.822,26.121-64.486,26.121s-54.932-10.885-64.488-26.121a4.8,4.8,0,0,0-8.169,0c-9.556,15.236-34.82,26.121-64.486,26.121s-54.93-10.885-64.486-26.121a4.8,4.8,0,0,0-8.169,0c-9.556,15.236-34.822,26.121-64.488,26.121s-54.93-10.885-64.486-26.121a4.8,4.8,0,0,0-8.169,0c-9.556,15.236-34.82,26.121-64.486,26.121s-54.932-10.885-64.488-26.121a4.8,4.8,0,0,0-8.168,0c-9.556,15.236-34.822,26.121-64.488,26.121s-54.93-10.885-64.486-26.121a4.8,4.8,0,0,0-8.169,0c-9.556,15.236-34.822,26.121-64.486,26.121S836.5,183.926,826.941,168.69a4.8,4.8,0,0,0-8.168,0c-9.556,15.236-34.822,26.121-64.488,26.121s-54.93-10.885-64.486-26.121a4.8,4.8,0,0,0-8.169,0c-9.556,15.236-34.822,26.121-64.486,26.121s-54.932-10.885-64.488-26.121a4.8,4.8,0,0,0-8.169,0c-9.556,15.236-34.82,26.121-64.486,26.121s-54.93-10.885-64.486-26.121a4.8,4.8,0,0,0-8.169,0c-9.556,15.236-34.822,26.121-64.488,26.121s-54.93-10.885-64.486-26.121a4.8,4.8,0,0,0-8.169,0c-9.556,15.236-34.82,26.121-64.486,26.121s-54.932-10.885-64.488-26.121a4.8,4.8,0,0,0-8.168,0c-9.556,15.236-34.822,26.121-64.488,26.121C30.7,194.811,0,177.071,0,155.187V1149.3a4.807,4.807,0,0,0,4.806,4.806H1915.194A4.807,4.807,0,0,0,1920,1149.3V155.187C1920,177.071,1889.3,194.811,1851.429,194.811Z" transform="translate(0 0.235)" fill="#a6ddff"/>
      <path id="Path_19" data-name="Path 19" d="M961.7,154.773c.006.216.028.431.028.649,0-.218.023-.433.028-.649Z" transform="translate(546.847 0)" fill="#a6ddff"/>
      <path id="Path_20" data-name="Path 20" d="M786.839,154.773c.006.216.028.431.028.649,0-.218.022-.433.028-.649Z" transform="translate(447.418 0)" fill="#a6ddff"/>
      <path id="Path_21" data-name="Path 21" d="M874.268,154.773c.006.216.028.431.028.649,0-.218.022-.433.028-.649Z" transform="translate(497.133 0)" fill="#a6ddff"/>
    </g>
    <g id="Group_45" data-name="Group 45">
      <rect id="Rectangle_4" data-name="Rectangle 4" width="401" height="401" rx="200.5" transform="translate(542 340)" fill="#d8efff" opacity="0.5"/>
      <text id="Hershey_Co" data-name="Hershey Co" transform="translate(743 595.986)" fill="#2e3192" font-size="25" font-family="Agrandir-Regular, Agrandir"><tspan x="-69.4" y="0">Hershey Co</tspan></text>
      <text id="HSY" transform="translate(743 552.986)" fill="#3fa9f5" font-size="50" font-family="Agrandir-Regular, Agrandir" letter-spacing="0.03em"><tspan x="-47.825" y="0">HSY</tspan></text>
    </g>
    <g id="Group_46" data-name="Group 46">
      <rect id="Rectangle_5" data-name="Rectangle 5" width="401" height="401" rx="200.5" transform="translate(965 340)" fill="#f8f8f8" opacity="0.7"/>
      <text id="Nestle" transform="translate(1166 595.986)" fill="#2e3192" font-size="25" font-family="Agrandir-Regular, Agrandir"><tspan x="-36.425" y="0">Nestle</tspan></text>
      <text id="NSRGY" transform="translate(1166 552.986)" fill="#3fa9f5" font-size="50" font-family="Agrandir-Regular, Agrandir" letter-spacing="0.03em"><tspan x="-86.125" y="0">NSRGY</tspan></text>
    </g>
    <g id="Group_9" data-name="Group 9" transform="translate(0 26)">
      <text id="whale" transform="translate(78 76)" fill="#3fa9f5" font-size="45" font-family="Agrandir-Regular, Agrandir"><tspan x="0" y="0">whale</tspan></text>
    </g>
    <g id="Group_16" data-name="Group 16" transform="translate(1354 36)">
      <circle id="Ellipse_19" data-name="Ellipse 19" cx="82.5" cy="82.5" r="82.5" transform="translate(314 339)" fill="#3fa9f5" opacity="0.5"/>
      <text id="Amazon" transform="translate(336 430.986)" fill="#fff" font-size="32" font-family="Agrandir-Regular, Agrandir"><tspan x="0" y="0">Amazon</tspan></text>
    </g>
    <g id="Group_14" data-name="Group 14" transform="translate(1243 -70)">
      <circle id="Ellipse_23" data-name="Ellipse 23" cx="82.5" cy="82.5" r="82.5" transform="translate(377 729)" fill="#3fa9f5" opacity="0.5"/>
      <text id="Postmates" transform="translate(460 819.986)" fill="#fff" font-size="30" font-family="Agrandir-Regular, Agrandir"><tspan x="-75.555" y="0">Postmates</tspan></text>
    </g>
    <g id="Group_11" data-name="Group 11" transform="translate(1476 -319)">
      <circle id="Ellipse_24" data-name="Ellipse 24" cx="82.5" cy="82.5" r="82.5" transform="translate(78 859)" fill="#3fa9f5" opacity="0.5"/>
      <text id="Google" transform="translate(161 949.986)" fill="#fff" font-size="32" font-family="Agrandir-Regular, Agrandir"><tspan x="-53.728" y="0">Google</tspan></text>
    </g>
    <g id="Group_22" data-name="Group 22" transform="translate(-175 55)">
      <path id="Path_30" data-name="Path 30" d="M82.5,0A82.5,82.5,0,1,1,0,82.5,82.5,82.5,0,0,1,82.5,0Z" transform="translate(314 339)" fill="#d8efff" opacity="0.5"/>
      <text id="Apple" transform="translate(355 430.986)" fill="#3fa9f5" font-size="32" font-family="Agrandir-Regular, Agrandir"><tspan x="0" y="0">Apple</tspan></text>
    </g>
    <g id="Group_25" data-name="Group 25" transform="translate(-99 84)">
      <circle id="Ellipse_21" data-name="Ellipse 21" cx="82.5" cy="82.5" r="82.5" transform="translate(177 640)" fill="#fff" opacity="0.5"/>
      <text id="Walmart" transform="translate(260 736.986)" fill="#3fa9f5" font-size="32" font-family="Agrandir-Regular, Agrandir"><tspan x="-65.568" y="0">Walmart</tspan></text>
    </g>
    <g id="Group_23" data-name="Group 23" transform="translate(104 101)">
      <circle id="Ellipse_22" data-name="Ellipse 22" cx="82.5" cy="82.5" r="82.5" transform="translate(118 421)" fill="#d8efff" opacity="0.5"/>
      <text id="Netflix" transform="translate(153 512.986)" fill="#3fa9f5" font-size="32" font-family="Agrandir-Regular, Agrandir"><tspan x="0" y="0">Netflix</tspan></text>
    </g>
    <g id="Group_43" data-name="Group 43" transform="translate(377 -6)">
      <text id="TEAM" transform="translate(1408 107.986)" font-size="24" font-family="Agrandir-Regular, Agrandir" letter-spacing="0.075em" opacity="0.3"><tspan x="-35.028" y="0">TEAM</tspan></text>
      <text id="Los_Angeles" data-name="Los Angeles" transform="translate(1408 139.986)" fill="#3fa9f5" font-size="32" font-family="Agrandir-Regular, Agrandir"><tspan x="-88.848" y="0">Los Angeles</tspan></text>
    </g>
    <g id="Group_44" data-name="Group 44" transform="translate(-465 -6)">
      <text id="TIME" transform="translate(1408 107.986)" font-size="24" font-family="Agrandir-Regular, Agrandir" letter-spacing="0.075em" opacity="0.3"><tspan x="-29.472" y="0">TIME</tspan></text>
      <text id="_0_48" data-name="0 48" transform="translate(1408 160)" fill="#3fa9f5" font-size="55" font-family="Agrandir-Regular, Agrandir"><tspan x="-58.603" y="0">0 48</tspan></text>
      <text id=":" transform="translate(1395 155)" fill="#3fa9f5" font-size="55" font-family="Agrandir-Regular, Agrandir"><tspan x="-5.307" y="0">:</tspan></text>
    </g>
    <text id="_7_left" data-name="7 left" transform="translate(943 194)" fill="#3fa9f5" font-size="25" font-family="Agrandir-Regular, Agrandir"><tspan x="-30.512" y="0">7 left</tspan></text>
    <text id="FOR" transform="translate(1670 353.985)" fill="#2e3192" font-size="25" font-family="Agrandir-Regular, Agrandir" letter-spacing="0.03em" opacity="0"><tspan x="-26.05" y="0">FOR</tspan></text>
    <text id="AGAINST" transform="translate(264 350.985)" fill="#2e3192" font-size="25" font-family="Agrandir-Regular, Agrandir" letter-spacing="0.03em" opacity="0"><tspan x="-53.813" y="0">AGAINST</tspan></text>
    <g id="Cursors_Hand_Pointing_" data-name="Cursors / Hand (Pointing)" transform="translate(848.273 540)">
      <rect id="Box" width="43.971" height="43.971" fill="none"/>
      <g transform="matrix(1, 0, 0, 1, -848.27, -540)" filter="url(#Path_666)">
        <g id="Path_666-2" data-name="Path 666" transform="translate(599.95 650.94)" fill="#fff" fill-rule="evenodd">
          <path d="M 268.865478515625 -79.81027984619141 C 268.7515258789062 -79.81027984619141 268.6441955566406 -79.85823822021484 268.5709533691406 -79.94186401367188 C 268.4939880371094 -80.02976226806641 268.4636535644531 -80.13943481445312 268.4807739257812 -80.26784515380859 L 268.4818725585938 -80.27654266357422 L 268.48583984375 -80.31119537353516 C 268.5073547363281 -80.49950408935547 268.5073547363281 -80.49950408935547 268.4920959472656 -80.64320373535156 L 268.4814453125 -80.74551391601562 C 268.4364013671875 -81.19270324707031 268.3046875 -81.50244903564453 268.0788269042969 -81.69269561767578 C 267.9099731445312 -81.83608245849609 267.7175598144531 -82.01347351074219 267.2857360839844 -82.42371368408203 C 266.8236999511719 -82.86251068115234 266.68408203125 -82.99346923828125 266.5090637207031 -83.14736175537109 L 266.4925842285156 -83.161865234375 L 266.4779052734375 -83.17818450927734 L 265.3768310546875 -84.40212249755859 L 265.3682250976562 -84.41168975830078 L 265.3602600097656 -84.42184448242188 C 265.3025207519531 -84.49564361572266 265.1745910644531 -84.70475006103516 264.82373046875 -85.28353118896484 C 264.4600524902344 -85.88346099853516 263.9619750976562 -86.70510101318359 263.6806945800781 -87.11336517333984 C 263.5034790039062 -87.37002563476562 263.4494018554688 -87.43894958496094 262.7163696289062 -88.34229278564453 L 262.6477661132812 -88.42693328857422 C 262.0870056152344 -89.11978149414062 261.8133544921875 -89.49314880371094 261.6717834472656 -89.75858306884766 C 261.4105224609375 -90.25782012939453 261.4032287597656 -90.45211029052734 261.4860534667969 -91.00459289550781 C 261.5980224609375 -91.75202941894531 262.322265625 -92.33756256103516 263.1348571777344 -92.33756256103516 C 263.1872253417969 -92.33756256103516 263.2400817871094 -92.33502960205078 263.2919921875 -92.33003997802734 C 263.8829650878906 -92.27423858642578 264.3758850097656 -91.95213317871094 265.0784912109375 -91.37727355957031 C 265.1690063476562 -91.30341339111328 265.2756652832031 -91.20040893554688 265.39501953125 -91.07147216796875 C 265.4611206054688 -91.00022888183594 265.5310668945312 -90.92121124267578 265.6086120605469 -90.83016967773438 C 265.6642150878906 -90.76505279541016 265.77880859375 -90.62614440917969 265.8651428222656 -90.5211181640625 L 265.9890441894531 -90.37002563476562 C 266.0032958984375 -90.35261535644531 266.0188293457031 -90.33362579345703 266.0341796875 -90.31295776367188 L 266.034912109375 -90.31355285644531 L 266.0361633300781 -90.31207275390625 L 266.0393371582031 -90.30824279785156 C 266.1197204589844 -90.21143341064453 266.1817016601562 -90.13114166259766 266.2532653808594 -90.03112030029297 C 266.3861083984375 -89.84154510498047 266.4556274414062 -89.74368286132812 266.5480651855469 -89.62042999267578 L 266.4760437011719 -89.56636047363281 L 266.3671875 -89.4840087890625 L 266.5538635253906 -89.61188507080078 C 266.5950012207031 -89.55312347412109 266.8218383789062 -89.24577331542969 266.8785705566406 -89.18334197998047 C 266.9169311523438 -89.1478271484375 266.9555969238281 -89.12987518310547 266.9935913085938 -89.12987518310547 C 267.0319213867188 -89.12987518310547 267.0705261230469 -89.14773559570312 267.0995178222656 -89.17887115478516 C 267.122802734375 -89.20390319824219 267.1495361328125 -89.24834442138672 267.1445617675781 -89.31798553466797 C 267.1410522460938 -89.36759185791016 267.1270141601562 -89.43414306640625 267.0909118652344 -89.57250213623047 L 267.0854187011719 -89.59355163574219 L 267.0823974609375 -89.61508178710938 C 266.92724609375 -90.72135925292969 266.8714599609375 -91.08818817138672 266.7461547851562 -91.75130462646484 C 266.6991882324219 -91.99958038330078 266.6514282226562 -92.23218536376953 266.6041870117188 -92.44261169433594 C 266.5176696777344 -92.82677459716797 266.4608764648438 -93.06338500976562 266.4016723632812 -93.28626251220703 L 266.3806762695312 -93.36418151855469 C 266.3511962890625 -93.47282409667969 266.2218627929688 -93.93212890625 266.2167358398438 -93.95004272460938 L 266.5024108886719 -94.03199005126953 L 266.2160339355469 -93.95236206054688 C 266.146728515625 -94.20183563232422 266.08642578125 -94.43636322021484 266.014404296875 -94.73657989501953 L 265.9831848144531 -94.86781311035156 C 265.8906555175781 -95.26226806640625 265.8399047851562 -95.47674560546875 265.7831115722656 -95.70758056640625 C 265.6376342773438 -96.31076049804688 265.4567260742188 -97.21049499511719 265.4071960449219 -97.69318389892578 C 265.3361511230469 -98.37538146972656 265.2844543457031 -99.59970855712891 265.737060546875 -100.1284103393555 C 265.9861145019531 -100.4192352294922 266.4310913085938 -100.5228424072266 266.7645263671875 -100.5228424072266 C 266.9842834472656 -100.5228424072266 267.1864929199219 -100.4792098999023 267.3493957519531 -100.3966751098633 C 267.633544921875 -100.2530899047852 267.9048461914062 -99.96297454833984 268.1553649902344 -99.53456878662109 C 268.2374267578125 -99.39436340332031 268.3179626464844 -99.23853302001953 268.4014892578125 -99.05833435058594 C 268.423828125 -99.01016998291016 268.4671020507812 -98.91318511962891 268.5047607421875 -98.82823181152344 C 268.5298767089844 -98.77154541015625 268.5517272949219 -98.72220611572266 268.5686645507812 -98.67730712890625 L 268.5707397460938 -98.67824554443359 C 268.8700866699219 -98.00965881347656 269.0790405273438 -97.21435546875 269.2694091796875 -96.01892852783203 C 269.3216552734375 -95.69065093994141 269.3869323730469 -95.31275177001953 269.4749145507812 -94.82958221435547 L 269.5259399414062 -94.55080413818359 L 269.5745239257812 -94.28722381591797 C 269.91748046875 -92.42697143554688 269.91748046875 -92.42697143554688 269.9210205078125 -92.26804351806641 L 269.9217834472656 -92.23960113525391 C 269.9247436523438 -92.149658203125 269.9721984863281 -92.10404205322266 270.0628051757812 -92.10404205322266 C 270.1933898925781 -92.10404205322266 270.1998291015625 -92.20278167724609 270.2019348144531 -92.2352294921875 C 270.2142639160156 -92.42483520507812 270.2093811035156 -92.60285949707031 270.1862487792969 -93.11668395996094 L 270.1796569824219 -93.26710510253906 C 270.1565246582031 -93.80913543701172 270.1606750488281 -94.09312438964844 270.1944274902344 -94.28036499023438 C 270.2724304199219 -94.71118927001953 270.6390686035156 -95.15211486816406 271.0118408203125 -95.26350402832031 C 271.2618408203125 -95.33779144287109 271.5269165039062 -95.37698364257812 271.7789306640625 -95.37698364257812 C 271.9284057617188 -95.37698364257812 272.0707397460938 -95.36322021484375 272.2019348144531 -95.33609008789062 C 272.5765686035156 -95.25948333740234 273.0074462890625 -94.98171997070312 273.1616516113281 -94.71707153320312 C 273.2969360351562 -94.48406982421875 273.4086303710938 -94.15196990966797 273.4939270019531 -93.72953033447266 C 273.5544738769531 -93.4295654296875 273.5997009277344 -93.09825134277344 273.6321716308594 -92.71665954589844 C 273.6415710449219 -92.60731506347656 273.6477355957031 -92.52254486083984 273.6571655273438 -92.38227844238281 C 273.6607666015625 -92.32794189453125 273.6607666015625 -92.32794189453125 273.6644897460938 -92.28346252441406 C 273.6654663085938 -92.27316284179688 273.6657409667969 -92.27095031738281 273.6676635742188 -92.25762939453125 C 273.7362365722656 -92.24899291992188 273.8268127441406 -92.23976135253906 273.9295959472656 -92.22994232177734 C 273.9374084472656 -92.23957061767578 273.9445190429688 -92.24839019775391 273.9508361816406 -92.25632476806641 C 273.9804382324219 -92.38932800292969 274.0007934570312 -92.54487609863281 274.0328979492188 -92.88095855712891 C 274.0538024902344 -93.10416412353516 274.0643615722656 -93.21421051025391 274.0765991210938 -93.32836151123047 C 274.1515197753906 -94.020751953125 274.24658203125 -94.25199890136719 274.321044921875 -94.37615966796875 C 274.4799194335938 -94.64170837402344 274.9204711914062 -94.92396545410156 275.1695861816406 -94.96849822998047 C 275.3980407714844 -95.0089111328125 275.639892578125 -95.03020477294922 275.8696899414062 -95.03020477294922 C 276.0779113769531 -95.03020477294922 276.2706909179688 -95.01327514648438 276.442626953125 -94.97988128662109 C 276.71728515625 -94.92586517333984 277.1595153808594 -94.56326293945312 277.2816162109375 -94.37265014648438 C 277.5703125 -93.91705322265625 277.7359313964844 -92.56892395019531 277.780517578125 -92.15917205810547 C 277.7886352539062 -92.14701080322266 277.7981262207031 -92.13302612304688 277.8088073730469 -92.11745452880859 C 277.9194946289062 -92.13036346435547 278.01513671875 -92.14202117919922 278.0880432128906 -92.15229797363281 C 278.0965881347656 -92.18071746826172 278.10595703125 -92.21588134765625 278.1168212890625 -92.25811004638672 C 278.1748657226562 -92.47788238525391 278.2187194824219 -92.62734222412109 278.28564453125 -92.79402160644531 C 278.3338317871094 -92.91428375244141 278.3861999511719 -93.01929473876953 278.4411926269531 -93.10585021972656 C 278.656005859375 -93.44387054443359 279.1143798828125 -93.67097473144531 279.5818786621094 -93.67097473144531 C 279.6512756347656 -93.67097473144531 279.7201232910156 -93.665771484375 279.7865600585938 -93.65550994873047 C 280.1440124511719 -93.60030364990234 280.749755859375 -93.35050964355469 280.7909851074219 -92.29788970947266 C 280.8111572265625 -91.76863098144531 280.8170471191406 -91.56815338134766 280.8184814453125 -91.36486053466797 C 280.8190307617188 -91.29135131835938 280.8190307617188 -91.23218536376953 280.818603515625 -91.06571197509766 L 280.8182983398438 -90.84083557128906 C 280.8182983398438 -90.16792297363281 280.8040161132812 -89.73844146728516 280.763671875 -89.20016479492188 C 280.7010498046875 -88.39154815673828 280.5822143554688 -87.34619903564453 280.4362182617188 -86.83454132080078 C 280.2996826171875 -86.35687255859375 279.89599609375 -85.45989990234375 279.5599975585938 -84.97417449951172 L 279.5386962890625 -84.943359375 L 279.5162963867188 -84.92179870605469 C 279.4970092773438 -84.90065765380859 279.4268493652344 -84.81792449951172 279.3084716796875 -84.67169952392578 C 279.1009216308594 -84.41564178466797 278.9084777832031 -84.16596984863281 278.736328125 -83.92945098876953 C 278.6374816894531 -83.79353332519531 278.5461730957031 -83.66306304931641 278.4649658203125 -83.54177856445312 C 278.1401062011719 -83.05685424804688 277.9557189941406 -82.69370269775391 277.9012145996094 -82.43151092529297 C 277.8161010742188 -82.02597808837891 277.7843322753906 -81.81069183349609 277.7751159667969 -81.57759857177734 C 277.7728881835938 -81.51126098632812 277.7728881835938 -81.51126098632812 277.7714233398438 -81.44463348388672 C 277.767822265625 -81.28028869628906 277.7655639648438 -81.20920562744141 277.7584228515625 -81.08504486083984 C 277.7523803710938 -80.98048400878906 277.7538757324219 -80.86294555664062 277.7628479003906 -80.73572540283203 C 277.7786254882812 -80.51486968994141 277.763916015625 -80.22718811035156 277.7632751464844 -80.21506500244141 L 277.7428894042969 -79.82488250732422 L 277.3538818359375 -79.86125183105469 C 277.3529663085938 -79.861328125 277.2332763671875 -79.87218475341797 277.0901489257812 -79.87218475341797 C 277.0703735351562 -79.87218475341797 277.050048828125 -79.87197113037109 277.0295104980469 -79.87149810791016 C 276.9788513183594 -79.87033843994141 276.9299621582031 -79.86975860595703 276.8829650878906 -79.86975860595703 C 276.6843566894531 -79.86975860595703 276.5189208984375 -79.88010406494141 276.3912048339844 -79.90048980712891 C 275.9135131835938 -79.97747802734375 275.2563171386719 -81.04878997802734 275.1192016601562 -81.30985260009766 C 274.9906005859375 -81.55509185791016 274.7745361328125 -81.69563293457031 274.5263061523438 -81.69563293457031 C 274.2861022949219 -81.69563293457031 274.0658874511719 -81.56554412841797 273.9371643066406 -81.34764099121094 C 273.7531433105469 -81.03437805175781 273.5166320800781 -80.69844818115234 273.2887573242188 -80.42676544189453 C 272.9149475097656 -79.9810791015625 272.7349853515625 -79.90350341796875 272.5961608886719 -79.88603973388672 C 272.2454528808594 -79.84193420410156 271.7854309082031 -79.82311248779297 271.0579833984375 -79.82311248779297 C 270.6983947753906 -79.82311248779297 270.2656555175781 -79.82767486572266 269.6961669921875 -79.83747863769531 L 269.4025573730469 -79.84262847900391 C 269.37451171875 -79.84313201904297 269.3479614257812 -79.84336090087891 269.3228454589844 -79.84336090087891 C 269.1165161132812 -79.84336090087891 269.0179443359375 -79.82807922363281 268.9649658203125 -79.81986999511719 C 268.9345397949219 -79.81516265869141 268.903076171875 -79.81027984619141 268.865478515625 -79.81027984619141 Z M 273.7975158691406 -88.71686553955078 C 273.7532653808594 -88.71686553955078 273.7112426757812 -88.70226287841797 273.6878356933594 -88.67874908447266 C 273.6801147460938 -88.67097473144531 273.6565551757812 -88.64732360839844 273.6568908691406 -88.57590484619141 L 273.6788940429688 -83.80364990234375 C 273.6790466308594 -83.76911163330078 273.6795349121094 -83.66403198242188 273.8189086914062 -83.66400909423828 C 273.8631286621094 -83.66400909423828 273.9051208496094 -83.67860412597656 273.9284973144531 -83.70210266113281 C 273.9362487792969 -83.70988464355469 273.9598083496094 -83.73352813720703 273.95947265625 -83.80496215820312 L 273.9374694824219 -88.57722473144531 C 273.9373168945312 -88.61177062988281 273.9368286132812 -88.71686553955078 273.7975158691406 -88.71686553955078 Z M 276.5888366699219 -88.71371459960938 C 276.4485473632812 -88.71371459960938 276.4485473632812 -88.60812377929688 276.4485473632812 -88.57342529296875 L 276.4485473632812 -83.82038116455078 C 276.4485473632812 -83.78568267822266 276.4485473632812 -83.68009185791016 276.5888366699219 -83.68009185791016 C 276.7291259765625 -83.68009185791016 276.7291259765625 -83.78568267822266 276.7291259765625 -83.82038116455078 L 276.7291259765625 -88.57342529296875 C 276.7291259765625 -88.60812377929688 276.7291259765625 -88.71371459960938 276.5888366699219 -88.71371459960938 Z M 271.07666015625 -88.67343902587891 C 271.0323486328125 -88.67343902587891 270.9902648925781 -88.65879821777344 270.9668273925781 -88.63522338867188 C 270.9590759277344 -88.62743377685547 270.935546875 -88.60374450683594 270.9360046386719 -88.53230285644531 L 270.9649047851562 -83.82460021972656 C 270.9651184082031 -83.78648376464844 270.9657592773438 -83.6851806640625 271.1048278808594 -83.68517303466797 C 271.1491394042969 -83.68517303466797 271.1912231445312 -83.69981384277344 271.2146606445312 -83.723388671875 C 271.2223815917969 -83.73117065429688 271.2459411621094 -83.75485992431641 271.2454833984375 -83.82630920410156 L 271.2165832519531 -88.53401184082031 C 271.2163391113281 -88.57212829589844 271.2157287597656 -88.67343902587891 271.07666015625 -88.67343902587891 Z M 265.9488220214844 -89.16942596435547 C 266.0176086425781 -89.07913208007812 266.1282043457031 -89.02497863769531 266.2445373535156 -89.02497863769531 L 266.2445373535156 -89.3912353515625 L 265.9488220214844 -89.16941833496094 L 265.9488220214844 -89.16942596435547 Z" stroke="none"/>
          <path d="M 268.865478515625 -80.18527984619141 C 268.9003295898438 -80.18527984619141 269.0092468261719 -80.21836090087891 269.3228454589844 -80.21836090087891 C 269.3500671386719 -80.21836090087891 269.3788452148438 -80.21811676025391 269.4092407226562 -80.21757507324219 C 269.5558776855469 -80.21495819091797 269.5558776855469 -80.21495819091797 269.7026062011719 -80.21242523193359 C 270.2376403808594 -80.20320892333984 270.6829528808594 -80.19811248779297 271.0579833984375 -80.19811248779297 C 271.7588500976562 -80.19811248779297 272.2140502929688 -80.21593475341797 272.5493774414062 -80.25811004638672 C 272.7077941894531 -80.27803039550781 273.2414855957031 -80.90377807617188 273.6142883300781 -81.53836822509766 C 273.8197937011719 -81.88626861572266 274.1725158691406 -82.07063293457031 274.5263061523438 -82.07063293457031 C 274.8838195800781 -82.07063293457031 275.2424011230469 -81.88232421875 275.4512023925781 -81.48421478271484 C 275.7229919433594 -80.96671295166016 276.2538146972656 -80.30247497558594 276.4503173828125 -80.27080535888672 C 276.5592346191406 -80.25341033935547 276.7070007324219 -80.24475860595703 276.8829345703125 -80.24475860595703 C 276.9271850585938 -80.24475860595703 276.9732055664062 -80.24530792236328 277.0208435058594 -80.24639892578125 C 277.0443420410156 -80.24694061279297 277.0675354003906 -80.24718475341797 277.0901489257812 -80.24718475341797 C 277.2544250488281 -80.24718475341797 277.3887939453125 -80.234619140625 277.3887939453125 -80.234619140625 C 277.3887939453125 -80.234619140625 277.4031066894531 -80.50874328613281 277.3887939453125 -80.70934295654297 C 277.37890625 -80.84941864013672 277.3768615722656 -80.98204040527344 277.384033203125 -81.10662841796875 C 277.390869140625 -81.22525024414062 277.3929748535156 -81.29076385498047 277.3965148925781 -81.45299530029297 C 277.3980407714844 -81.52162933349609 277.3980407714844 -81.52162933349609 277.400390625 -81.59242248535156 C 277.4102783203125 -81.84243011474609 277.4428100585938 -82.07304382324219 277.5340576171875 -82.50783538818359 C 277.6036071777344 -82.84243011474609 277.8185119628906 -83.25057983398438 278.1533508300781 -83.75041198730469 C 278.2398376464844 -83.87959289550781 278.33349609375 -84.01311492919922 278.4331359863281 -84.15012359619141 C 278.6194458007812 -84.40610504150391 278.8182983398438 -84.66249084472656 279.0169982910156 -84.90763854980469 C 279.1362609863281 -85.05496978759766 279.229736328125 -85.16645812988281 279.2515869140625 -85.1875 C 279.5582275390625 -85.63079833984375 279.9457702636719 -86.483154296875 280.0756225585938 -86.93740844726562 C 280.2027282714844 -87.38299560546875 280.3201904296875 -88.33051300048828 280.3897094726562 -89.22817993164062 C 280.4288940429688 -89.75098419189453 280.4432983398438 -90.16954040527344 280.4432983398438 -90.84138488769531 C 280.4434814453125 -90.96511840820312 280.4434814453125 -90.96511840820312 280.443603515625 -91.06668853759766 C 280.4440307617188 -91.23104095458984 280.4440307617188 -91.28945922851562 280.4434814453125 -91.36225891113281 C 280.4421081542969 -91.55952453613281 280.4361877441406 -91.76047515869141 280.416259765625 -92.28321838378906 C 280.3913879394531 -92.91849517822266 280.1335754394531 -93.22246551513672 279.7293395996094 -93.28490447998047 C 279.6808166503906 -93.29239654541016 279.6314697265625 -93.29597473144531 279.5818786621094 -93.29597473144531 C 279.2466125488281 -93.29597473144531 278.9021911621094 -93.13210296630859 278.7577209472656 -92.90475463867188 C 278.7149963378906 -92.83750915527344 278.6732177734375 -92.75305938720703 278.6336364746094 -92.65427398681641 C 278.5762939453125 -92.511474609375 278.5379638671875 -92.38404846191406 278.47998046875 -92.16460418701172 C 278.4558410644531 -92.07085418701172 278.4387512207031 -92.010498046875 278.4174499511719 -91.95830535888672 C 278.4401550292969 -91.81182861328125 278.4401550292969 -91.81182861328125 277.6289978027344 -91.71934509277344 C 277.3930969238281 -92.05644989013672 277.3930969238281 -92.05644989013672 277.4081726074219 -92.11455535888672 C 277.31201171875 -93.00048065185547 277.141357421875 -93.89339447021484 276.9658508300781 -94.17037200927734 C 276.8804016113281 -94.30376434326172 276.519287109375 -94.58261871337891 276.3711547851562 -94.61176300048828 C 276.2201843261719 -94.64107513427734 276.0486450195312 -94.65520477294922 275.8696899414062 -94.65520477294922 C 275.6613464355469 -94.65520477294922 275.4429321289062 -94.63603210449219 275.235595703125 -94.599365234375 C 275.0819702148438 -94.57189178466797 274.7398071289062 -94.34571075439453 274.6426391601562 -94.18328094482422 C 274.5643615722656 -94.05276489257812 274.5000305175781 -93.75582122802734 274.449462890625 -93.28845977783203 C 274.4373779296875 -93.17555999755859 274.4269409179688 -93.06671905517578 274.4061889648438 -92.84531402587891 C 274.3736572265625 -92.50471496582031 274.3509521484375 -92.32343292236328 274.313720703125 -92.16082000732422 C 274.3198852539062 -92.11266326904297 274.3198852539062 -92.11266326904297 274.0927734375 -91.83808898925781 C 273.3322143554688 -91.90830230712891 273.3322143554688 -91.90830230712891 273.3221435546875 -92.09770965576172 C 273.3025207519531 -92.1644287109375 273.3025207519531 -92.1644287109375 273.2984008789062 -92.19077301025391 C 273.2930297851562 -92.22837066650391 273.2930297851562 -92.22837066650391 273.2908020019531 -92.25217437744141 C 273.2868347167969 -92.29958343505859 273.2868347167969 -92.29958343505859 273.2830200195312 -92.35707855224609 C 273.2737731933594 -92.49442291259766 273.2677612304688 -92.57743072509766 273.2585144042969 -92.68487548828125 C 273.2291259765625 -93.03018951416016 273.1872253417969 -93.35372924804688 273.1263427734375 -93.65531921386719 C 273.0509033203125 -94.02898406982422 272.9525146484375 -94.33042907714844 272.8376159667969 -94.52830505371094 C 272.742431640625 -94.69168853759766 272.4104309082031 -94.91070556640625 272.1260070800781 -94.96886444091797 C 272.018310546875 -94.99112701416016 271.9009399414062 -95.00197601318359 271.7789306640625 -95.00197601318359 C 271.564208984375 -95.00197601318359 271.3351135253906 -94.96836090087891 271.1192016601562 -94.90420532226562 C 270.8780212402344 -94.83213043212891 270.6162719726562 -94.50545501708984 270.5634765625 -94.21381378173828 C 270.5346374511719 -94.05387878417969 270.5334167480469 -93.77252960205078 270.5542907714844 -93.28347015380859 C 270.5575561523438 -93.20864868164062 270.5575561523438 -93.20864868164062 270.5608825683594 -93.13355255126953 C 270.5847778320312 -92.60274505615234 270.589599609375 -92.41790008544922 270.5761413574219 -92.21088409423828 C 270.5551452636719 -91.88845825195312 270.30908203125 -91.72904205322266 270.0628051757812 -91.72904205322266 C 269.8104858398438 -91.72904205322266 269.5579223632812 -91.89638519287109 269.5469665527344 -92.22721862792969 C 269.5410461425781 -92.40644836425781 269.5712890625 -92.23614501953125 269.1570739746094 -94.48325347900391 C 269.1315612792969 -94.62255096435547 269.1315612792969 -94.62255096435547 269.10595703125 -94.76241302490234 C 269.0200805664062 -95.23411560058594 268.9532165527344 -95.61962890625 268.8990783691406 -95.95995330810547 C 268.7161560058594 -97.10848236083984 268.517578125 -97.87928009033203 268.2284851074219 -98.52500915527344 C 268.2292785644531 -98.52322387695312 268.2296752929688 -98.52236938476562 268.2296752929688 -98.52236938476562 C 268.2299499511719 -98.52239990234375 268.1049194335938 -98.80653381347656 268.0612487792969 -98.90064239501953 C 267.9852600097656 -99.06459808349609 267.9109191894531 -99.20983123779297 267.8316345214844 -99.34528350830078 C 267.6223754882812 -99.70316314697266 267.4012451171875 -99.95032501220703 267.1798706054688 -100.0621719360352 C 267.06396484375 -100.1209106445312 266.9166870117188 -100.1478424072266 266.7645263671875 -100.1478424072266 C 266.4724731445312 -100.1478424072266 266.1624145507812 -100.0485763549805 266.0219421386719 -99.88452911376953 C 265.7481994628906 -99.56478118896484 265.6766052246094 -98.72663116455078 265.7802429199219 -97.73146820068359 C 265.825439453125 -97.29108428955078 265.9962463378906 -96.42330932617188 266.1472473144531 -95.79717254638672 C 266.2052307128906 -95.56150054931641 266.2566528320312 -95.34403228759766 266.3480224609375 -94.95446014404297 C 266.3635559082031 -94.88903045654297 266.3635559082031 -94.88903045654297 266.3790588378906 -94.82407379150391 C 266.447509765625 -94.53879547119141 266.5068664550781 -94.30648803710938 266.5773620605469 -94.05271911621094 C 266.5770568847656 -94.05382537841797 266.576904296875 -94.05435943603516 266.576904296875 -94.05435943603516 C 266.5770568847656 -94.05435943603516 266.7120971679688 -93.57479095458984 266.74267578125 -93.46201324462891 C 266.7533569335938 -93.42249298095703 266.7533569335938 -93.42249298095703 266.7640991210938 -93.38254547119141 C 266.8240356445312 -93.15694427490234 266.8817138671875 -92.91717529296875 266.9700927734375 -92.52474212646484 C 267.0198059082031 -92.30324554443359 267.0677795410156 -92.06861877441406 267.1146240234375 -91.82093811035156 C 267.2406311035156 -91.15421295166016 267.2958679199219 -90.79290008544922 267.4537658691406 -89.66717529296875 C 267.4937744140625 -89.51385498046875 267.5128479003906 -89.426025390625 267.5186157226562 -89.34471130371094 C 267.5427856445312 -89.00658416748047 267.2828979492188 -88.75487518310547 266.9935913085938 -88.75487518310547 C 266.8662414550781 -88.75487518310547 266.7331237792969 -88.80368804931641 266.6161193847656 -88.91539001464844 C 266.5482482910156 -88.98015594482422 266.2432861328125 -89.39997863769531 266.2445373535156 -89.39997863769531 C 266.2445983886719 -89.39997863769531 266.2457580566406 -89.39852142333984 266.248046875 -89.39544677734375 C 266.14990234375 -89.52632904052734 266.0772705078125 -89.62879180908203 265.9483032226562 -89.81291198730469 C 265.8843994140625 -89.90223693847656 265.8282470703125 -89.97544097900391 265.7508239746094 -90.06866455078125 C 265.7501220703125 -90.06951904296875 265.7484741210938 -90.07147979736328 265.7458801269531 -90.07462310791016 C 265.7475280761719 -90.07262420654297 265.7492065429688 -90.07064056396484 265.7508239746094 -90.06866455078125 C 265.7511291503906 -90.06832122802734 265.7512817382812 -90.06814575195312 265.7512817382812 -90.06814575195312 C 265.7517700195312 -90.06815338134766 265.4249877929688 -90.46769714355469 265.3231811523438 -90.58697509765625 C 265.2506408691406 -90.67211151123047 265.183349609375 -90.74825286865234 265.1198425292969 -90.81671905517578 C 265.0126647949219 -90.93250274658203 264.9188232421875 -91.02357482910156 264.8410339355469 -91.08702850341797 C 264.1227722167969 -91.67469024658203 263.7186584472656 -91.91309356689453 263.2561340332031 -91.95676422119141 C 263.2155456542969 -91.96066284179688 263.1751403808594 -91.96256256103516 263.1348571777344 -91.96256256103516 C 262.5119323730469 -91.96256256103516 261.9405212402344 -91.50717163085938 261.8569030761719 -90.94900512695312 C 261.7813415527344 -90.44495391845703 261.792724609375 -90.33624267578125 262.0026550292969 -89.93505859375 C 262.1365051269531 -89.68410491943359 262.4208374023438 -89.30337524414062 262.9392700195312 -88.66284942626953 C 262.9733581542969 -88.62073516845703 262.9733581542969 -88.62073516845703 263.007568359375 -88.57858276367188 C 263.7306213378906 -87.68753814697266 263.8011169433594 -87.59896850585938 263.989501953125 -87.32611846923828 C 264.4737243652344 -86.62329864501953 265.53466796875 -84.8074951171875 265.6556091308594 -84.65292358398438 L 266.7566833496094 -83.42898559570312 C 266.9354553222656 -83.27178955078125 267.0805358886719 -83.13576507568359 267.5440368652344 -82.69557952880859 C 267.9495544433594 -82.31032562255859 268.1515502929688 -82.12290954589844 268.3204040527344 -81.97951507568359 C 268.6467590332031 -81.70464324951172 268.8034057617188 -81.29080963134766 268.8545227050781 -80.78330993652344 C 268.8851928710938 -80.48062896728516 268.8890075683594 -80.537353515625 268.8545227050781 -80.234619140625 C 268.8502807617188 -80.19704437255859 268.8446960449219 -80.18527984619141 268.865478515625 -80.18527984619141 M 273.7975158691406 -89.09185791015625 C 274.0542297363281 -89.09185791015625 274.3109130859375 -88.92125701904297 274.3124694824219 -88.57894897460938 L 274.33447265625 -83.80667877197266 C 274.3360595703125 -83.46193695068359 274.0774230957031 -83.28898620605469 273.8188781738281 -83.28901672363281 C 273.5621337890625 -83.28904724121094 273.3054504394531 -83.45962524414062 273.3038940429688 -83.80191802978516 L 273.2818908691406 -88.57418823242188 C 273.2803039550781 -88.91893005371094 273.5389404296875 -89.09185791015625 273.7975158691406 -89.09185791015625 M 276.5888366699219 -89.08870697021484 C 276.8464965820312 -89.08870697021484 277.1041259765625 -88.91694641113281 277.1041259765625 -88.57342529296875 L 277.1041259765625 -83.82038116455078 C 277.1041259765625 -83.47686004638672 276.8464965820312 -83.30509185791016 276.5888366699219 -83.30509185791016 C 276.3312072753906 -83.30509185791016 276.0735473632812 -83.47686004638672 276.0735473632812 -83.82038116455078 L 276.0735473632812 -88.57342529296875 C 276.0735473632812 -88.91694641113281 276.3312072753906 -89.08870697021484 276.5888366699219 -89.08870697021484 M 271.07666015625 -89.04844665527344 C 271.3331298828125 -89.04844665527344 271.5894775390625 -88.87824249267578 271.5915832519531 -88.53630828857422 L 271.6204833984375 -83.82862091064453 C 271.6226196289062 -83.48350524902344 271.3636779785156 -83.31015777587891 271.1048278808594 -83.31017303466797 C 270.8483581542969 -83.31018829345703 270.5920104980469 -83.48037719726562 270.5899047851562 -83.82230377197266 L 270.5610046386719 -88.52999114990234 C 270.5588684082031 -88.87510681152344 270.8178100585938 -89.04844665527344 271.07666015625 -89.04844665527344 M 266.2488098144531 -89.39443969726562 C 266.24853515625 -89.39479064941406 266.248291015625 -89.39512634277344 266.248046875 -89.39544677734375 C 266.2483215332031 -89.39511108398438 266.2485656738281 -89.394775390625 266.2488098144531 -89.39443969726562 M 278.0970153808594 -79.41515350341797 L 277.3189697265625 -79.48788452148438 C 277.3189697265625 -79.48788452148438 277.3189697265625 -79.48788452148438 277.3189697265625 -79.48788452148438 C 277.3190002441406 -79.48787689208984 277.2142944335938 -79.49718475341797 277.0901489257812 -79.49718475341797 C 277.0731506347656 -79.49718475341797 277.0557250976562 -79.49700164794922 277.0380859375 -79.49660491943359 C 276.9844360351562 -79.49536895751953 276.9327087402344 -79.49475860595703 276.8829650878906 -79.49475860595703 C 276.6615295410156 -79.49475860595703 276.4813537597656 -79.50635528564453 276.3320617675781 -79.53018188476562 C 276.0282897949219 -79.57913970947266 275.7578430175781 -79.77940368652344 275.3975524902344 -80.22156524658203 C 275.1644592285156 -80.50764465332031 274.9419860839844 -80.84075164794922 274.7872009277344 -81.13548278808594 C 274.7227172851562 -81.25846862792969 274.6349792480469 -81.32063293457031 274.5263061523438 -81.32063293457031 C 274.4201354980469 -81.32063293457031 274.3205871582031 -81.25942993164062 274.2600402832031 -81.15691375732422 C 274.0663757324219 -80.82726287841797 273.8167419433594 -80.47273254394531 273.5760803222656 -80.18578338623047 C 273.2019653320312 -79.73972320556641 272.9403381347656 -79.55136871337891 272.6429748535156 -79.51396942138672 C 272.27587890625 -79.46781158447266 271.8018798828125 -79.44811248779297 271.0579833984375 -79.44811248779297 C 270.6960144042969 -79.44811248779297 270.26123046875 -79.45269012451172 269.689697265625 -79.46253204345703 L 269.3959045410156 -79.46768951416016 C 269.3702087402344 -79.46815490722656 269.3458557128906 -79.46836090087891 269.3228454589844 -79.46836090087891 C 269.1453857421875 -79.46836090087891 269.0653991699219 -79.45596313476562 269.0223999023438 -79.44930267333984 C 268.9842529296875 -79.44338226318359 268.9319763183594 -79.43527984619141 268.865478515625 -79.43527984619141 C 268.6434326171875 -79.43527984619141 268.4332580566406 -79.52989196777344 268.288818359375 -79.69483947753906 C 268.1847839355469 -79.81365203857422 268.0691528320312 -80.01810455322266 268.1090393066406 -80.31739807128906 L 268.1132507324219 -80.35377502441406 C 268.1207275390625 -80.41934204101562 268.1284790039062 -80.48715209960938 268.1289978027344 -80.50460815429688 C 268.1286010742188 -80.51502227783203 268.1235961914062 -80.56208801269531 268.1192016601562 -80.60362243652344 L 268.1083374023438 -80.70770263671875 C 268.056640625 -81.22109985351562 267.8915100097656 -81.36016082763672 267.8372497558594 -81.40586090087891 C 267.6611938476562 -81.55537414550781 267.4649963378906 -81.73615264892578 267.0274658203125 -82.15185546875 C 266.5696411132812 -82.58663940429688 266.4317016601562 -82.71604156494141 266.2614440917969 -82.86575317382812 L 266.2284545898438 -82.89474487304688 L 266.1990966796875 -82.92738342285156 L 265.0980224609375 -84.15132141113281 L 265.080810546875 -84.17047119140625 L 265.06494140625 -84.19075012207031 C 264.9957885742188 -84.27911376953125 264.8900756835938 -84.45072937011719 264.5030517578125 -85.08913421630859 C 264.1417846679688 -85.68511962890625 263.64697265625 -86.50135040283203 263.3718872070312 -86.90061187744141 C 263.2026977539062 -87.14568328857422 263.1495666503906 -87.21331024169922 262.4252014160156 -88.10600280761719 L 262.3562927246094 -88.19100952148438 C 261.7717895507812 -88.91315460205078 261.49658203125 -89.29018402099609 261.3408813476562 -89.58211517333984 L 261.3395080566406 -89.58470916748047 L 261.338134765625 -89.58733367919922 C 261.0384826660156 -90.15998077392578 261.0206909179688 -90.42977142333984 261.1152038574219 -91.06018829345703 C 261.2539672851562 -91.98672485351562 262.1411437988281 -92.71256256103516 263.1348571777344 -92.71256256103516 C 263.1991271972656 -92.71256256103516 263.2640686035156 -92.70944976806641 263.3278503417969 -92.70332336425781 C 264.0138549804688 -92.6385498046875 264.5559692382812 -92.28929901123047 265.3159484863281 -91.66750335693359 C 265.4210205078125 -91.58179473876953 265.5371704101562 -91.46993255615234 265.6702270507812 -91.32622528076172 C 265.7396545410156 -91.25135040283203 265.8130493164062 -91.16846466064453 265.8940734863281 -91.07337188720703 C 265.9512939453125 -91.00633239746094 266.0675048828125 -90.86550140380859 266.1548461914062 -90.75925445556641 L 266.2793273925781 -90.60742950439453 C 266.2912902832031 -90.59281921386719 266.3066101074219 -90.57406616210938 266.3236389160156 -90.55149841308594 L 266.3243103027344 -90.55204010009766 L 266.3269348144531 -90.5489501953125 L 266.3278503417969 -90.54779815673828 C 266.4143371582031 -90.44364166259766 266.4810791015625 -90.35717010498047 266.5582275390625 -90.24935150146484 L 266.5604248046875 -90.24629974365234 L 266.5625610351562 -90.24322509765625 C 266.5862121582031 -90.20948791503906 266.6078186035156 -90.17866516113281 266.6279907226562 -90.15000152587891 C 266.5315856933594 -90.82200622558594 266.4763793945312 -91.15927124023438 266.377685546875 -91.68166351318359 C 266.3315124511719 -91.92575073242188 266.2846069335938 -92.1541748046875 266.2383117675781 -92.36048126220703 C 266.1529846191406 -92.73936462402344 266.0971374511719 -92.97206878662109 266.0392456054688 -93.18997955322266 L 266.0186462402344 -93.26634979248047 C 265.9910583496094 -93.36804962158203 265.8644714355469 -93.81790924072266 265.8562316894531 -93.84674072265625 L 266.3787841796875 -93.99610137939453 L 265.85546875 -93.84928131103516 L 265.8546447753906 -93.85227966308594 L 265.8538208007812 -93.85530853271484 C 265.7836303710938 -94.10805511474609 265.7225646972656 -94.34561157226562 265.6497497558594 -94.64907836914062 L 265.6183166503906 -94.78115081787109 C 265.52587890625 -95.17527008056641 265.475341796875 -95.38885498046875 265.4189758300781 -95.61800384521484 C 265.2702331542969 -96.23473358154297 265.0853576660156 -97.15589904785156 265.0341491699219 -97.65489959716797 C 264.8968505859375 -98.97321319580078 265.0374755859375 -99.88785552978516 265.4522094726562 -100.3722839355469 C 265.7839965820312 -100.7597885131836 266.34765625 -100.8978424072266 266.7645263671875 -100.8978424072266 C 267.0428771972656 -100.8978424072266 267.3037109375 -100.8402099609375 267.5188903808594 -100.7311782836914 C 267.8731384277344 -100.5521926879883 268.1874694824219 -100.2225646972656 268.4790649414062 -99.72385406494141 C 268.567138671875 -99.57339477539062 268.6531372070312 -99.40717315673828 268.7417297363281 -99.21601104736328 C 268.7645568847656 -99.166748046875 268.8089904785156 -99.06726837158203 268.8476257324219 -98.98012542724609 C 268.869140625 -98.93154144287109 268.8912353515625 -98.88162231445312 268.9111328125 -98.83009338378906 L 268.9132080078125 -98.83103179931641 C 269.2265930175781 -98.13095092773438 269.4439086914062 -97.30753326416016 269.6397399902344 -96.07791137695312 C 269.6915283203125 -95.75239562988281 269.7563781738281 -95.37711334228516 269.8438415527344 -94.89675140380859 L 269.8948059082031 -94.61835479736328 L 269.8969421386719 -94.60666656494141 C 270.0719909667969 -95.07973480224609 270.4712219238281 -95.49334716796875 270.9044799804688 -95.622802734375 C 271.189208984375 -95.70742034912109 271.4912414550781 -95.75198364257812 271.7789306640625 -95.75198364257812 C 271.9538879394531 -95.75198364257812 272.1217651367188 -95.73561096191406 272.2778930664062 -95.70332336425781 C 272.6860656738281 -95.61986541748047 273.2491760253906 -95.31177520751953 273.4856567382812 -94.90585327148438 C 273.6136169433594 -94.68547821044922 273.7214965820312 -94.39694213867188 273.8076782226562 -94.04541015625 C 273.8582153320312 -94.27086639404297 273.9199523925781 -94.43647766113281 273.9994506835938 -94.56903839111328 C 274.1994934082031 -94.90343475341797 274.7259826660156 -95.27013397216797 275.1035766601562 -95.33765411376953 C 275.3539428710938 -95.38193511962891 275.6183776855469 -95.40520477294922 275.8696899414062 -95.40520477294922 C 276.1018981933594 -95.40520477294922 276.3187255859375 -95.38596343994141 276.5141296386719 -95.34799957275391 C 276.9192810058594 -95.268310546875 277.4339599609375 -94.83000946044922 277.5973815917969 -94.57492828369141 C 277.7914428710938 -94.26868438720703 277.930419921875 -93.68845367431641 278.0255126953125 -93.13035583496094 C 278.0572814941406 -93.19396209716797 278.0903930664062 -93.25299835205078 278.1246948242188 -93.30693817138672 C 278.4055480957031 -93.74899291992188 278.9911499023438 -94.04597473144531 279.5818786621094 -94.04597473144531 C 279.6703491210938 -94.04597473144531 279.7584533691406 -94.03929138183594 279.8437805175781 -94.026123046875 C 280.223388671875 -93.96748352050781 281.1120300292969 -93.68314361572266 281.1656799316406 -92.31256103515625 C 281.1860656738281 -91.77833557128906 281.1920166015625 -91.57534027099609 281.1934509277344 -91.36746978759766 C 281.1940307617188 -91.29325103759766 281.1940307617188 -91.23332214355469 281.193603515625 -91.06473541259766 L 281.1932983398438 -90.84029388427734 C 281.1932983398438 -90.15756225585938 281.1787414550781 -89.72074890136719 281.1376037597656 -89.17213439941406 C 281.1064453125 -88.76950836181641 280.9901428222656 -87.40927124023438 280.7968444824219 -86.73167419433594 C 280.6519470214844 -86.22473907470703 280.2350769042969 -85.29093170166016 279.868408203125 -84.76084136962891 L 279.8257751464844 -84.69921875 L 279.787109375 -84.66197967529297 C 279.7624206542969 -84.63365936279297 279.6980285644531 -84.55693054199219 279.5999450683594 -84.43576049804688 C 279.3963317871094 -84.18453979492188 279.2078857421875 -83.94007110595703 279.0395202636719 -83.70877075195312 C 278.943603515625 -83.57687377929688 278.8550720214844 -83.45042419433594 278.7765502929688 -83.33315277099609 C 278.4831848144531 -82.89520263671875 278.3122253417969 -82.56622314453125 278.2683715820312 -82.35520172119141 C 278.177978515625 -81.92449188232422 278.1570129394531 -81.74459075927734 278.1498107910156 -81.56277465820312 C 278.1477661132812 -81.50089263916016 278.1477661132812 -81.50089263916016 278.1463317871094 -81.436279296875 C 278.1426391601562 -81.26699829101562 278.1402893066406 -81.19338989257812 278.1327819824219 -81.06345367431641 C 278.127685546875 -80.97483825683594 278.1290893554688 -80.87342834472656 278.1369323730469 -80.76211547851562 C 278.1540222167969 -80.52283477783203 278.1394958496094 -80.22829437255859 278.1377563476562 -80.19549560546875 L 278.0970153808594 -79.41515350341797 Z" stroke="none"/>
        </g>
      </g>
    </g>
  </g>
</svg>
