<svg id="Layer_1" data-name="Layer 1" xmlns="http://www.w3.org/2000/svg" viewBox="0 0 163.19 48.14"><defs><style>.cls-1{fill:#3fa9f5;}</style></defs><title>Artboard 4</title><path class="cls-1" d="M1.37,14.94H6.45L15.2,41.19h.56l7-26.25h6.57l7.2,26.32h.56l8.56-26.32h5.09L40.28,46.28H32.89L26.37,20.9h-.62L19.18,46.28H11.85Z"/><path class="cls-1" d="M53.81.67H59V18.91h.62a11.63,11.63,0,0,1,9.86-5.21c8,0,13,5.77,13,13.78v18.8H77.33V27.48c0-5.34-3.17-9.12-8.57-9.12A9.62,9.62,0,0,0,59,28V46.28H53.81Z"/><path class="cls-1" d="M85.83,38.34c0-5.53,4.72-9.62,14-10.68l8.69-1.05V25.37c0-4.22-3-6.95-8.19-6.95-4.72,0-7.82,2.29-7.76,6.2H87.38c0-6.64,5.15-10.86,13-10.86,8.13,0,13.28,4.6,13.28,11.73V46.28h-5.15V41.69H108c-2.23,3.6-5.89,5.58-10.92,5.58C90.3,47.27,85.83,43.74,85.83,38.34Zm22.71-4.53V31l-8.69,1c-6.39.8-8.87,3.29-8.87,6.2S93.59,43,97.81,43C104.2,43,108.54,39.08,108.54,33.81Z"/><path class="cls-1" d="M119.53.67h5.15V46.28h-5.15Z"/><path class="cls-1" d="M129.46,30.21c0-9.56,6.95-16.51,16.63-16.51s16.44,7,16.44,16.57c0,.62,0,1.37-.06,2.05H134.73c.75,6.33,5.34,10.55,11.73,10.55a12,12,0,0,0,10.74-6.08L161.48,39c-2.55,5.34-8.19,8.56-15.14,8.56C136.53,47.52,129.46,40.26,129.46,30.21Zm27.67-2.42a11,11,0,0,0-11.29-9.43,10.81,10.81,0,0,0-11.05,9.43Z"/></svg>