<?xml version="1.0" encoding="UTF-8" standalone="no"?>
<svg
   xmlns:dc="http://purl.org/dc/elements/1.1/"
   xmlns:cc="http://creativecommons.org/ns#"
   xmlns:rdf="http://www.w3.org/1999/02/22-rdf-syntax-ns#"
   xmlns:svg="http://www.w3.org/2000/svg"
   xmlns="http://www.w3.org/2000/svg"
   viewBox="0 0 1760 880.98669"
   height="880.98669"
   width="1760"
   xml:space="preserve"
   id="svg2"
   version="1.1"><metadata
     id="metadata8"><rdf:RDF><cc:Work
         rdf:about=""><dc:format>image/svg+xml</dc:format><dc:type
           rdf:resource="http://purl.org/dc/dcmitype/StillImage" /><dc:title></dc:title></cc:Work></rdf:RDF></metadata><defs
     id="defs6" /><g
     transform="matrix(1.3333333,0,0,-1.3333333,0,880.98667)"
     id="g10"><path
       d="M 660.39203,112.41251 660.742,0 H 0 v 115.634 c 17.7449,-6.349 34.7051,-11.189 44.1797,-11.617 57.7273,-0.605 64.7593,27.325 142.2763,6.798 30.374,-8.04 70.047,3.186 102.783,5.415 36.069,2.455 72.284,4.666 108.208,-2.893 l 4.774,-1.006 c 53.482,-11.133 64.57,8.121 115.662,2.437 54.175,-6.027 56.699,-18.3692 116.555,-3.829 10.71213,2.75305 9.21184,1.33934 14.93003,2.52341"
       style="fill:#f7af59;fill-opacity:1;fill-rule:evenodd;stroke:none;stroke-width:0.1"
       id="path26" /><path
       d="M 660.742,66.7051 V 0 H 0 V 72.118 C 23.9273,60.9738 54.6363,49.5129 68.3766,48.8461 121.905,48.241 128.427,76.1699 200.307,55.643 c 28.165,-8.0399 64.953,3.1871 95.308,5.4148 33.446,2.4551 67.028,4.666 100.34,-2.8937 l 4.426,-1.0051 c 49.592,-11.1328 59.875,8.1219 107.251,2.4371 50.237,-6.027 52.576,-18.3691 108.081,-3.8313 17.019,4.4602 30.528,10.0602 45.029,10.9403"
       style="fill:#f9cc78;fill-opacity:1;fill-rule:evenodd;stroke:none;stroke-width:0.1"
       id="path28" /><path
       d="m 474.353,85.3969 c 7.922,0 14.345,-3.459 14.345,-7.7219 0,-4.268 -6.423,-7.727 -14.345,-7.727 -7.922,0 -14.344,3.459 -14.344,7.727 0,4.2629 6.422,7.7219 14.344,7.7219 z m 155.86,0 c 9.598,0 17.382,-3.211 17.382,-7.1731 0,-3.9609 -7.784,-7.1718 -17.382,-7.1718 -9.597,0 -17.377,3.2109 -17.377,7.1718 0,3.9621 7.78,7.1731 17.377,7.1731 z m -307.305,2.757 c 5.029,0 9.104,-2.2238 9.104,-4.966 0,-2.7418 -4.075,-4.9641 -9.104,-4.9641 -5.027,0 -9.102,2.2223 -9.102,4.9641 0,2.7422 4.075,4.966 9.102,4.966 z m -110.068,4.968 c 8.836,0 15.998,-3.459 15.998,-7.725 0,-4.2649 -7.162,-7.7239 -15.998,-7.7239 -8.837,0 -16,3.459 -16,7.7239 0,4.266 7.163,7.725 16,7.725 v 0"
       style="fill:#eb9134;fill-opacity:1;fill-rule:evenodd;stroke:none;stroke-width:0.1"
       id="path30" /><path
       d="m 371.458,31.3281 c 11.123,0 20.138,-4.5679 20.138,-10.2062 0,-5.6379 -9.015,-10.2059 -20.138,-10.2059 -11.121,0 -20.136,4.568 -20.136,10.2059 0,5.6383 9.015,10.2062 20.136,10.2062"
       style="fill:#f7af59;fill-opacity:1;fill-rule:evenodd;stroke:none;stroke-width:0.1"
       id="path32" /><path
       d="m 527.871,38.502 c 12.796,0 23.171,-4.9418 23.171,-11.0348 0,-6.093 -10.375,-11.0352 -23.171,-11.0352 -12.798,0 -23.173,4.9422 -23.173,11.0352 0,6.093 10.375,11.0348 23.173,11.0348"
       style="fill:#f7af59;fill-opacity:1;fill-rule:evenodd;stroke:none;stroke-width:0.1"
       id="path34" /><path
       d="m 156.128,32.982 c 11.658,27.9762 27.358,46.6559 6.715,77.885 -9.809,14.842 -24.627,40.104 -13.431,57.237 6.916,10.583 11.808,18.204 17.75,28.879 l 1.103,0.963 h 14.399 l -1.103,-0.963 c -5.942,-10.675 -10.834,-18.296 -17.75,-28.879 -11.197,-17.133 3.621,-42.395 13.43,-57.237 20.644,-31.2291 4.943,-49.9088 -6.715,-77.885 h -14.398"
       style="fill:#448733;fill-opacity:1;fill-rule:evenodd;stroke:none;stroke-width:0.1"
       id="path36" /><path
       d="m 162.18,33.532 c -17.112,1.252 -42.413,27.8071 -40.854,51.0258 2.685,39.9562 10.397,23.5002 27.934,50.3502 8.328,12.747 1.956,56.226 -8.278,65.29 -0.119,0.106 -15.319,33.571 -2.366,37.061 3.586,0.966 3.808,1.548 6.477,2.615 h 14.398 c -2.669,-1.067 -2.89,-1.649 -6.477,-2.615 -12.953,-3.49 2.248,-36.955 2.366,-37.061 10.234,-9.064 16.606,-52.543 8.279,-65.29 -17.538,-26.85 -25.25,-10.394 -27.934,-50.3502 -1.56,-23.2187 23.741,-49.7738 40.853,-51.0258 H 162.18"
       style="fill:#6fbc3a;fill-opacity:1;fill-rule:evenodd;stroke:none;stroke-width:0.1"
       id="path38" /><path
       d="m 174.236,34.3012 c -17.644,28.1508 -7.29,32.0519 -14.615,53.4527 -9.576,27.9801 9.602,35.1291 30.768,60.9251 16.123,19.655 28.853,20.5 3.028,41.727 -7.351,6.042 -15.438,20.668 -14.164,31.48 h -14.399 c -1.274,-10.812 6.813,-25.438 14.164,-31.48 25.826,-21.227 13.096,-22.072 -3.028,-41.727 -21.165,-25.796 -40.344,-32.945 -30.768,-60.9251 7.326,-21.4008 -3.028,-25.3019 14.615,-53.4527 h 14.399"
       style="fill:#559d33;fill-opacity:1;fill-rule:evenodd;stroke:none;stroke-width:0.1"
       id="path40" /><path
       d="m 40.9809,35.741 c 8.075,0 14.6207,-3.2109 14.6207,-7.1711 0,-3.9617 -6.5457,-7.1738 -14.6207,-7.1738 -8.0746,0 -14.6211,3.2121 -14.6211,7.1738 0,3.9602 6.5465,7.1711 14.6211,7.1711"
       style="fill:#f7af59;fill-opacity:1;fill-rule:evenodd;stroke:none;stroke-width:0.1"
       id="path42" /><path
       d="m 516.271,32.0141 c -15.812,58.7918 -9.739,34.055 -40.702,72.5599 -30.052,37.37 9.805,27.526 9.805,70.477 0,18.958 -5.163,55.351 9.238,69.469 3.254,3.192 7.314,5.733 10.756,5.733 h 14.398 c 2.866,0 5.303,-1.762 6.488,-6.379 h -14.398 c -0.236,0.921 -0.523,1.729 -0.853,2.431 -0.688,-0.562 -1.356,-1.16 -1.994,-1.785 -14.399,-14.118 -9.236,-50.511 -9.236,-69.469 0,-42.951 -39.857,-33.107 -9.806,-70.477 30.962,-38.5049 24.892,-13.7681 40.701,-72.5599 h -14.397"
       style="fill:#559d33;fill-opacity:1;fill-rule:evenodd;stroke:none;stroke-width:0.1"
       id="path44" /><path
       d="m 510.201,26.4969 c 10.394,0.9179 33.025,15.8351 33.702,30.6293 1.004,21.982 0.372,35.1008 -9.569,55.1238 -16.84,33.926 -11.806,32.504 1.94,66.015 7.063,17.224 1.972,31.983 1.466,46.251 -0.983,27.667 0.758,17.98 7.266,37.469 2.803,8.393 -17.11,17.269 -21.155,26.214 -0.495,1.098 -2.182,1.789 -3.168,3.675 h 14.399 c 0.986,-1.886 2.671,-2.577 3.169,-3.675 4.043,-8.945 23.957,-17.821 21.155,-26.214 -6.509,-19.489 -8.251,-9.802 -7.269,-37.469 0.509,-14.268 5.599,-29.027 -1.465,-46.251 -13.746,-33.511 -18.78,-32.089 -1.938,-66.015 9.939,-20.023 10.571,-33.1418 9.567,-55.1238 C 557.625,42.332 534.994,27.4148 524.6,26.4969 h -14.399"
       style="fill:#448733;fill-opacity:1;fill-rule:evenodd;stroke:none;stroke-width:0.1"
       id="path46" /><path
       d="m 514.353,34.2211 c 11.097,0.373 34.984,76.2049 9.145,100.5539 -21.238,20.014 -26.902,18.753 -48.924,34.616 -21.501,15.489 29.664,38.955 41.898,42.122 7.683,1.988 79.865,4.367 51.658,32.912 h 14.401 c 28.204,-28.545 -43.978,-30.924 -51.661,-32.912 -12.234,-3.167 -63.399,-26.633 -41.898,-42.122 22.023,-15.863 27.687,-14.602 48.924,-34.616 25.84,-24.349 1.952,-100.1809 -9.146,-100.5539 h -14.397"
       style="fill:#6fbc3a;fill-opacity:1;fill-rule:evenodd;stroke:none;stroke-width:0.1"
       id="path48" /><path
       d="m 161.255,41.2602 c 13.254,0 23.999,-5.3114 23.999,-11.8633 0,-6.5508 -10.745,-11.8617 -23.999,-11.8617 -13.255,0 -24,5.3109 -24,11.8617 0,6.5519 10.745,11.8633 24,11.8633"
       style="fill:#f7af59;fill-opacity:1;fill-rule:evenodd;stroke:none;stroke-width:0.1"
       id="path50" /><path
       d="m 209.668,96.1551 c 8.836,0 15.999,-3.4571 15.999,-7.7231 0,-4.2672 -7.163,-7.7261 -15.999,-7.7261 -8.837,0 -16,3.4589 -16,7.7261 0,4.266 7.163,7.7231 16,7.7231 z M 368.287,34.3629 c 11.122,0 20.137,-4.5699 20.137,-10.2059 0,-5.6379 -9.015,-10.2058 -20.137,-10.2058 -11.121,0 -20.139,4.5679 -20.139,10.2058 0,5.636 9.018,10.2059 20.139,10.2059 z M 471.181,88.432 c 7.923,0 14.345,-3.459 14.345,-7.7238 0,-4.266 -6.422,-7.725 -14.345,-7.725 -7.922,0 -14.344,3.459 -14.344,7.725 0,4.2648 6.422,7.7238 14.344,7.7238 z m 53.517,-46.8949 c 12.798,0 23.173,-4.941 23.173,-11.0351 0,-6.095 -10.375,-11.034 -23.173,-11.034 -12.797,0 -23.172,4.939 -23.172,11.034 0,6.0941 10.375,11.0351 23.172,11.0351 z M 627.042,88.432 c 9.597,0 17.377,-3.2109 17.377,-7.1718 0,-3.9622 -7.78,-7.1731 -17.377,-7.1731 -9.597,0 -17.377,3.2109 -17.377,7.1731 0,3.9609 7.78,7.1718 17.377,7.1718 z M 37.8082,38.7762 c 8.0746,0 14.6211,-3.2114 14.6211,-7.1711 0,-3.9621 -6.5465,-7.1742 -14.6211,-7.1742 -8.0742,0 -14.6195,3.2121 -14.6195,7.1742 0,3.9597 6.5453,7.1711 14.6195,7.1711 z M 319.736,91.1871 c 5.027,0 9.104,-2.2211 9.104,-4.9641 0,-2.7441 -4.077,-4.9648 -9.104,-4.9648 -5.027,0 -9.103,2.2207 -9.103,4.9648 0,2.743 4.076,4.9641 9.103,4.9641 z M 158.082,44.2949 c 13.255,0 24,-5.3129 24,-11.8629 0,-6.55 -10.745,-11.8621 -24,-11.8621 -13.255,0 -23.999,5.3121 -23.999,11.8621 0,6.55 10.744,11.8629 23.999,11.8629 v 0"
       style="fill:#867664;fill-opacity:1;fill-rule:evenodd;stroke:none;stroke-width:0.1"
       id="path52" /><path
       d="m 296.965,65.0461 -17.332,-19.8711 36.705,-7.9828 -38.959,3.1297 -2.161,-22.0969 -6.745,21.8031 -38.04,-5.6742 34.791,10.3473 -21.35,18.5918 28.247,-15.411 24.844,17.1641"
       style="fill:#ed0e66;fill-opacity:1;fill-rule:evenodd;stroke:none;stroke-width:0.1"
       id="path54" /><path
       d="m 577.899,81.407 11.007,-7.0121 12.178,6.441 -9.137,-7.7339 15.281,-4.1692 -16.653,2.2332 -2.734,-9.0191 -1.157,9.1133 -16.97,-1.4032 15.94,3.4 -7.755,8.15"
       style="fill:#ed0e66;fill-opacity:1;fill-rule:evenodd;stroke:none;stroke-width:0.1"
       id="path56" /><path
       d="M 43.5797,92.7031 57.134,77.1672 28.4309,70.9219 l 30.4656,2.45 1.6879,-17.2809 5.275,17.05 29.7469,-4.4371 -27.2059,8.091 16.6965,14.536 L 63.0074,79.282 43.5797,92.7031"
       style="fill:#ed0e66;fill-opacity:1;fill-rule:evenodd;stroke:none;stroke-width:0.1"
       id="path72" /><path
       d="M 1321.484,120.39 V 2.378001 H 660.742 l -0.34997,110.034509 c 17.7449,-6.349 35.05507,-5.58951 44.52967,-6.01751 57.7273,-0.605 64.7593,27.325 142.2763,6.798 30.374,-8.04 70.047,3.186 102.783,5.415 36.069,2.455 72.284,4.666 108.208,-2.893 l 4.774,-1.006 c 53.482,-11.133 64.57,8.121 115.662,2.437 54.175,-6.027 56.699,-18.3692 116.555,-3.829 9.568,2.324 18.106,4.959 26.304,7.073"
       style="fill:#f7af59;fill-opacity:1;fill-rule:evenodd;stroke:none;stroke-width:0.09999999"
       id="path26-3" /><path
       d="M 1321.484,69.0831 V 0 H 660.742 v 66.620325 c 30.22673,0.600404 54.6363,-15.342317 68.3766,-16.032887 53.5284,-0.626672 60.0504,28.297878 131.9304,7.039206 28.165,-8.326519 64.953,3.300717 95.308,5.607834 33.446,2.542622 67.028,4.832339 100.34,-2.996859 l 4.426,-1.040931 c 49.592,-11.529678 59.875,8.411441 107.251,2.523981 50.237,-6.24186 52.576,-19.023949 108.081,-3.967883 17.019,4.619202 30.528,10.418839 45.029,11.330314"
       style="fill:#f9cc78;fill-opacity:1;fill-rule:evenodd;stroke:none;stroke-width:0.10176685"
       id="path28-6" /><path
       d="m 1135.095,87.7749 c 7.922,0 14.345,-3.459 14.345,-7.7219 0,-4.268 -6.423,-7.727 -14.345,-7.727 -7.922,0 -14.344,3.459 -14.344,7.727 0,4.2629 6.422,7.7219 14.344,7.7219 z m 155.86,0 c 9.598,0 17.382,-3.211 17.382,-7.1731 0,-3.9609 -7.784,-7.1718 -17.382,-7.1718 -9.597,0 -17.377,3.2109 -17.377,7.1718 0,3.9621 7.78,7.1731 17.377,7.1731 z m -307.305,2.757 c 5.029,0 9.104,-2.2238 9.104,-4.966 0,-2.7418 -4.075,-4.9641 -9.104,-4.9641 -5.027,0 -9.102,2.2223 -9.102,4.9641 0,2.7422 4.075,4.966 9.102,4.966 z m -110.068,4.968 c 8.836,0 15.998,-3.459 15.998,-7.725 0,-4.2649 -7.162,-7.7239 -15.998,-7.7239 -8.837,0 -16,3.459 -16,7.7239 0,4.266 7.163,7.725 16,7.725 v 0"
       style="fill:#eb9134;fill-opacity:1;fill-rule:evenodd;stroke:none;stroke-width:0.09999999"
       id="path30-7" /><path
       d="m 1032.2,33.706101 c 11.123,0 20.138,-4.5679 20.138,-10.2062 0,-5.6379 -9.015,-10.2059 -20.138,-10.2059 -11.121,0 -20.136,4.568 -20.136,10.2059 0,5.6383 9.015,10.2062 20.136,10.2062"
       style="fill:#f7af59;fill-opacity:1;fill-rule:evenodd;stroke:none;stroke-width:0.09999999"
       id="path32-5" /><path
       d="m 1028.113,40.880001 c 12.796,0 23.171,-4.9418 23.171,-11.0348 0,-6.093 -10.375,-11.0352 -23.171,-11.0352 -12.798,0 -23.173,4.9422 -23.173,11.0352 0,6.093 10.375,11.0348 23.173,11.0348"
       style="fill:#f7af59;fill-opacity:1;fill-rule:evenodd;stroke:none;stroke-width:0.09999999"
       id="path34-3" /><path
       d="m 816.87,35.360001 c 11.658,27.9762 27.358,46.655899 6.715,77.884999 -9.809,14.842 -24.627,40.104 -13.431,57.237 6.916,10.583 11.808,18.204 17.75,28.879 l 1.103,0.963 h 14.399 l -1.103,-0.963 c -5.942,-10.675 -10.834,-18.296 -17.75,-28.879 -11.197,-17.133 3.621,-42.395 13.43,-57.237 20.644,-31.2291 4.943,-49.908799 -6.715,-77.884999 H 816.87"
       style="fill:#448733;fill-opacity:1;fill-rule:evenodd;stroke:none;stroke-width:0.09999999"
       id="path36-5" /><path
       d="m 822.922,35.910001 c -17.112,1.028274 -42.413,22.838111 -40.854,41.907747 2.685,32.816232 10.397,19.300833 27.934,41.352872 8.328,10.46918 1.956,46.1787 -8.278,53.62301 -0.119,0.0871 -15.319,27.57203 -2.366,30.43838 3.586,0.79339 3.808,1.27138 6.477,2.14772 h 14.398 c -2.669,-0.87634 -2.89,-1.35433 -6.477,-2.14772 -12.953,-2.86635 2.248,-30.35132 2.366,-30.43838 10.234,-7.44431 16.606,-43.15383 8.279,-53.62301 -17.538,-22.052039 -25.25,-8.53664 -27.934,-41.352872 -1.56,-19.069636 23.741,-40.879473 40.853,-41.907747 h -14.398"
       style="fill:#6fbc3a;fill-opacity:1;fill-rule:evenodd;stroke:none;stroke-width:0.09062587"
       id="path38-6" /><path
       d="m 834.978,36.679201 c -17.644,33.424252 -7.29,38.05614 -14.615,63.465929 -9.576,33.22157 9.602,41.70978 30.768,72.33812 16.123,23.33694 28.853,24.34023 3.028,49.54366 -7.351,7.17384 -15.438,24.53971 -14.164,37.37711 h -14.399 c -1.274,-12.8374 6.813,-30.20327 14.164,-37.37711 25.826,-25.20343 13.096,-26.20672 -3.028,-49.54366 -21.165,-30.62834 -40.344,-39.11655 -30.768,-72.33812 7.326,-25.409789 -3.028,-30.041677 14.615,-63.465929 h 14.399"
       style="fill:#559d33;fill-opacity:1;fill-rule:evenodd;stroke:none;stroke-width:0.1089646"
       id="path40-2" /><path
       d="m 701.7229,38.119001 c 8.075,0 14.6207,-3.2109 14.6207,-7.1711 0,-3.9617 -6.5457,-7.1738 -14.6207,-7.1738 -8.0746,0 -14.6211,3.2121 -14.6211,7.1738 0,3.9602 6.5465,7.1711 14.6211,7.1711"
       style="fill:#f7af59;fill-opacity:1;fill-rule:evenodd;stroke:none;stroke-width:0.09999999"
       id="path42-9" /><path
       d="m 1032.528,252.7399 c -15.812,-58.7918 -9.739,-34.055 -40.702,-72.5599 -30.052,-37.37 9.805,-27.526 9.805,-70.477 0,-18.957999 -5.163,-55.350999 9.238,-69.468999 3.254,-3.192 7.314,-5.733 10.756,-5.733 h 14.398 c 2.866,0 5.303,1.762 6.488,6.379 h -14.398 c -0.236,-0.921 -0.523,-1.729 -0.853,-2.431 -0.688,0.562 -1.356,1.16 -1.994,1.785 -14.399,14.118 -9.236,50.511 -9.236,69.468999 0,42.951 -39.857,33.107 -9.806,70.477 30.962,38.5049 24.892,13.7681 40.701,72.5599 h -14.397"
       style="fill:#559d33;fill-opacity:1;fill-rule:evenodd;stroke:none;stroke-width:0.09999999"
       id="path44-1" /><path
       d="m 1010.443,294.252 c 10.394,-0.9179 33.025,-15.8351 33.702,-30.6293 1.004,-21.982 0.372,-35.1008 -9.569,-55.1238 -16.84,-33.926 -11.806,-32.504 1.94,-66.015 7.063,-17.224 1.972,-31.983 1.466,-46.250999 -0.983,-27.667 0.758,-17.98 7.266,-37.469 2.803,-8.393 -17.11,-17.269 -21.155,-26.214 -0.495,-1.098 -2.182,-1.789 -3.168,-3.675 h 14.399 c 0.986,1.886 2.671,2.577 3.169,3.675 4.043,8.945 23.957,17.821 21.155,26.214 -6.509,19.489 -8.251,9.802 -7.269,37.469 0.509,14.267999 5.599,29.026999 -1.465,46.250999 -13.746,33.511 -18.78,32.089 -1.938,66.015 9.939,20.023 10.571,33.1418 9.567,55.1238 -0.676,14.7942 -23.307,29.7114 -33.701,30.6293 h -14.399"
       style="fill:#448733;fill-opacity:1;fill-rule:evenodd;stroke:none;stroke-width:0.09999999"
       id="path46-2" /><path
       d="m 1044.2849,36.599101 c -11.097,0.373 -34.984,76.204899 -9.145,100.553899 21.238,20.014 26.902,18.753 48.924,34.616 21.501,15.489 -29.664,38.955 -41.898,42.122 -7.683,1.988 -79.865,4.367 -51.658,32.912 h -14.401 c -28.204,-28.545 43.978,-30.924 51.661,-32.912 12.234,-3.167 63.399,-26.633 41.898,-42.122 -22.023,-15.863 -27.687,-14.602 -48.924,-34.616 -25.84,-24.349 -1.952,-100.180899 9.146,-100.553899 h 14.397"
       style="fill:#6fbc3a;fill-opacity:1;fill-rule:evenodd;stroke:none;stroke-width:0.09999999"
       id="path48-7" /><path
       d="m 821.997,43.638201 c 13.254,0 23.999,-5.3114 23.999,-11.8633 0,-6.5508 -10.745,-11.8617 -23.999,-11.8617 -13.255,0 -24,5.3109 -24,11.8617 0,6.5519 10.745,11.8633 24,11.8633"
       style="fill:#f7af59;fill-opacity:1;fill-rule:evenodd;stroke:none;stroke-width:0.09999999"
       id="path50-0" /><path
       d="m 870.41,98.5331 c 8.836,0 15.999,-3.4571 15.999,-7.7231 0,-4.2672 -7.163,-7.7261 -15.999,-7.7261 -8.837,0 -16,3.4589 -16,7.7261 0,4.266 7.163,7.7231 16,7.7231 z m 158.619,-61.792199 c 11.122,0 20.137,-4.5699 20.137,-10.2059 0,-5.6379 -9.015,-10.2058 -20.137,-10.2058 -11.121,0 -20.139,4.5679 -20.139,10.2058 0,5.636 9.018,10.2059 20.139,10.2059 z M 1131.923,90.81 c 7.923,0 14.345,-3.459 14.345,-7.7238 0,-4.266 -6.422,-7.725 -14.345,-7.725 -7.922,0 -14.344,3.459 -14.344,7.725 0,4.2648 6.422,7.7238 14.344,7.7238 z m 53.517,-46.894899 c 12.798,0 23.173,-4.941 23.173,-11.0351 0,-6.095 -10.375,-11.034 -23.173,-11.034 -12.797,0 -23.172,4.939 -23.172,11.034 0,6.0941 10.375,11.0351 23.172,11.0351 z M 1287.784,90.81 c 9.597,0 17.377,-3.2109 17.377,-7.1718 0,-3.9622 -7.78,-7.1731 -17.377,-7.1731 -9.597,0 -17.377,3.2109 -17.377,7.1731 0,3.9609 7.78,7.1718 17.377,7.1718 z M 698.5502,41.154201 c 8.0746,0 14.6211,-3.2114 14.6211,-7.1711 0,-3.9621 -6.5465,-7.1742 -14.6211,-7.1742 -8.0742,0 -14.6195,3.2121 -14.6195,7.1742 0,3.9597 6.5453,7.1711 14.6195,7.1711 z M 980.478,93.5651 c 5.027,0 9.104,-2.2211 9.104,-4.9641 0,-2.7441 -4.077,-4.9648 -9.104,-4.9648 -5.027,0 -9.103,2.2207 -9.103,4.9648 0,2.743 4.076,4.9641 9.103,4.9641 z M 818.824,46.672901 c 13.255,0 24,-5.3129 24,-11.8629 0,-6.55 -10.745,-11.8621 -24,-11.8621 -13.255,0 -23.999,5.3121 -23.999,11.8621 0,6.55 10.744,11.8629 23.999,11.8629 v 0"
       style="fill:#867664;fill-opacity:1;fill-rule:evenodd;stroke:none;stroke-width:0.09999999"
       id="path52-9" /><path
       d="m 740.02675,89.122131 -17.332,-19.871099 36.705,-7.9828 -38.959,3.1297 -2.161,-22.0969 -6.745,21.8031 -38.04,-5.6742 34.791,10.3473 -21.35,18.591799 28.247,-15.410999 24.844,17.164099"
       style="fill:#ed0e66;fill-opacity:1;fill-rule:evenodd;stroke:none;stroke-width:0.09999999"
       id="path54-3" /><path
       d="m 1078.141,83.785 11.007,-7.0121 12.178,6.441 -9.137,-7.7339 15.281,-4.1692 -16.653,2.2332 -2.734,-9.0191 -1.157,9.1133 -16.97,-1.4032 15.94,3.4 -7.755,8.15"
       style="fill:#ed0e66;fill-opacity:1;fill-rule:evenodd;stroke:none;stroke-width:0.09999999"
       id="path56-6" /><path
       d="m 1183.1647,78.323828 13.5543,-15.535895 -28.7032,-6.2453 30.4657,2.45 1.6879,-17.280899 5.275,17.049999 29.7469,-4.4371 -27.2059,8.091 16.6965,14.535995 -22.0895,-12.048895 -19.4277,13.421095"
       style="fill:#ed0e66;fill-opacity:1;fill-rule:evenodd;stroke:none;stroke-width:0.09999999"
       id="path72-0" /></g></svg>