<?xml version="1.0" encoding="UTF-8" standalone="no"?>
<svg
   xmlns:dc="http://purl.org/dc/elements/1.1/"
   xmlns:cc="http://creativecommons.org/ns#"
   xmlns:rdf="http://www.w3.org/1999/02/22-rdf-syntax-ns#"
   xmlns:svg="http://www.w3.org/2000/svg"
   xmlns="http://www.w3.org/2000/svg"
   version="1.1"
   id="svg2"
   viewBox="0 0 500.00001 405.00001"
   height="405"
   width="500">
  <title
     id="title4221">Cartoon Fish</title>
  <defs
     id="defs4" />
  <metadata
     id="metadata7">
    <rdf:RDF>
      <cc:Work
         rdf:about="">
        <dc:format>image/svg+xml</dc:format>
        <dc:type
           rdf:resource="http://purl.org/dc/dcmitype/StillImage" />
        <dc:title>Cartoon Fish</dc:title>
        <cc:license
           rdf:resource="http://creativecommons.org/publicdomain/zero/1.0/" />
        <dc:description>Cartoon Fish</dc:description>
        <dc:creator>
          <cc:Agent>
            <dc:title></dc:title>
          </cc:Agent>
        </dc:creator>
        <dc:publisher>
          <cc:Agent>
            <dc:title>Openclipart.org</dc:title>
          </cc:Agent>
        </dc:publisher>
        <dc:identifier>https://openclipart.org/</dc:identifier>
        <dc:source></dc:source>
      </cc:Work>
      <cc:License
         rdf:about="http://creativecommons.org/publicdomain/zero/1.0/">
        <cc:permits
           rdf:resource="http://creativecommons.org/ns#Reproduction" />
        <cc:permits
           rdf:resource="http://creativecommons.org/ns#Distribution" />
        <cc:permits
           rdf:resource="http://creativecommons.org/ns#DerivativeWorks" />
      </cc:License>
    </rdf:RDF>
  </metadata>
  <g
     transform="translate(-122.04724,-323.6811)"
     id="layer1">
    <g
       transform="matrix(1.0664788,0,0,1.0699888,-64.239852,-212.24948)"
       id="g4215">
      <path
         id="path4159"
         d="m 458.70349,879.16715 c -1.89139,-0.2487 -3.43888,-0.7454 -3.43888,-1.1038 0,-0.3583 2.62611,-5.9394 5.8358,-12.4024 6.20916,-12.5028 7.9086,-21.0942 5.78443,-29.243 -1.31186,-5.0326 -1.72403,-5.1698 -24.12523,-8.031 -7.90941,-1.0102 -24.4204,-4.406 -36.69109,-7.5463 -12.27068,-3.1403 -23.64676,-5.7097 -25.28019,-5.7097 -2.89271,0 -4.40095,0.5346 -17.44708,6.1833 -13.61834,5.8965 -43.38715,2.4598 -48.68355,-5.6203 -1.07254,-1.6362 -1.95009,-3.2013 -1.95009,-3.4779 0,-0.2765 2.19679,-1.956 4.88176,-3.7321 5.11533,-3.3839 13.87574,-11.8386 13.87574,-13.3917 0,-0.4979 -6.33067,-5.2371 -14.06812,-10.5316 -17.74118,-12.1396 -31.65441,-22.9815 -34.15741,-26.6172 -1.06495,-1.5468 -2.67949,-2.8125 -3.58784,-2.8125 -2.71039,0 -20.49066,18.2526 -26.55096,27.2562 -3.09814,4.6029 -6.56964,9.2126 -7.71446,10.2438 -1.14481,1.0313 -4.82276,5.1094 -8.17324,9.0625 -12.17407,14.3638 -12.58004,13.0875 -20.17828,-63.4374 -2.72093,-27.4037 -3.67743,-33.38204 -6.09982,-38.12499 -1.58006,-3.09375 -5.07622,-9.84375 -7.76924,-15 -2.69301,-5.15625 -6.7928,-13.44216 -9.11062,-18.41312 -2.31783,-4.97098 -4.58611,-8.8084 -5.0406,-8.52763 -0.4545,0.28079 -0.94099,-0.87393 -1.08107,-2.56604 -0.1401,-1.6921 -1.2131,-4.88592 -2.38442,-7.09737 -1.17134,-2.21147 -2.3015,-5.02811 -2.51148,-6.25923 -0.21,-1.23112 -1.47338,-5.73112 -2.80751,-10 -4.38484,-14.03021 -5.43263,-22.48556 -5.53136,-44.63661 -0.0971,-21.79046 -0.0821,-21.91307 3.88284,-31.72479 3.77497,-9.34164 7.04763,-14.52521 9.17053,-14.52521 0.52653,0 1.33691,1.82812 1.80082,4.0625 1.20402,5.79893 7.1704,16.07614 16.8721,29.0625 9.07663,12.14966 11.16123,14.24108 24.20112,24.28008 13.11927,10.10012 27.05951,15.22972 27.05951,9.95711 0,-2.30923 21.30055,-22.50732 25.65281,-24.32508 2.39756,-1.00136 4.3592,-2.30737 4.3592,-2.90223 0,-0.59487 1.79831,-1.82616 3.99624,-2.73621 2.19793,-0.91005 5.71495,-3.14367 7.81562,-4.96361 3.5133,-3.0438 7.34195,-4.63783 13.8234,-5.75526 1.37554,-0.23715 5.25986,-1.31414 8.6318,-2.39331 8.67422,-2.77613 35.63388,-2.79858 43.14639,-0.0359 3.03031,1.11438 5.77106,1.76487 6.0905,1.44554 0.31948,-0.31933 0.19832,-3.13042 -0.26921,-6.24687 -0.72851,-4.8561 -7.76779,-19.82675 -21.58238,-45.89984 -4.15803,-7.84766 -2.81814,-10.31198 6.80864,-12.52245 13.12378,-3.01346 44.34104,-1.31766 65.96774,2.76422 1.94915,0.36789 3.77018,1.23815 5.62726,1.93514 3.00475,1.12773 6.02176,2.24704 8.91662,3.63271 3.06496,1.46709 5.92043,3.33788 8.91662,4.94076 2.93712,1.57128 6.10494,2.74081 8.87996,4.58332 3.27514,2.17457 4.99543,4.71741 9.05252,7.55975 4.05709,2.84234 10.78469,8.47824 14.9502,12.52421 7.19474,6.98826 8.23164,7.53953 20.72484,11.0182 17.39168,4.84263 31.66717,10.9731 44.76309,19.22307 5.89703,3.71493 13.81687,8.29879 17.59964,10.18636 9.16238,4.57197 15.49687,9.69822 18.95608,15.34041 1.56458,2.55196 8.22994,11.40391 14.81184,19.67101 10.36947,13.02437 17.45591,23.10231 29.42313,41.84391 1.53649,2.40625 3.76539,7.1875 4.95309,10.625 1.18773,3.4375 2.47541,7.09375 2.86152,8.125 0.3861,1.03125 0.79261,3 0.90337,4.375 1.11849,13.88749 2.40204,19.20405 6.01189,24.90185 5.01488,7.9155 5.36509,16.5626 0.95937,23.6884 l -2.93814,4.7521 2.67019,4.749 c 3.79331,6.7466 3.49145,13.5274 -0.8696,19.5335 -4.80293,6.6148 -24.29324,20.3221 -30.24947,21.2742 -3.78217,0.6045 -5.57294,1.9666 -9.43153,7.1736 -4.29133,5.7909 -10.51823,14.0898 -24.51865,32.6773 -6.30239,8.3673 -39.41198,38.4868 -46.00151,41.8472 -5.84479,2.9805 -27.04363,10.8289 -33.81807,12.5203 -2.40721,0.6011 -6.70866,1.6818 -9.55876,2.4017 -2.8501,0.7198 -8.19599,1.6036 -11.87976,1.9639 -3.68375,0.3603 -7.82318,0.8182 -9.19874,1.0177 -1.37554,0.1994 -4.04848,0.1591 -5.93986,-0.09 z m 32.20036,-13.9228 c 13.98791,-3.5771 28.82461,-8.9752 35.07393,-12.7612 8.90066,-5.3922 26.04214,-22.0819 34.5117,-33.6022 15.43592,-20.9958 22.2201,-30.9535 25.34533,-37.2014 l 3.28958,-6.5765 -3.46701,-1.4988 c -4.10228,-1.7733 -7.52967,-4.2665 -15.97204,-11.6186 -9.09845,-7.9234 -17.58428,-13.7253 -27.511,-18.8095 -9.58656,-4.9101 -29.33222,-12.2663 -30.30778,-11.2911 -0.33699,0.3369 -2.65919,-0.1533 -5.16045,-1.0892 -5.3367,-1.9969 -11.67593,-3.6547 -12.94361,-3.3848 -0.49109,0.1045 -0.57157,-0.647 -0.17885,-1.67 1.70455,-4.4402 34.59532,-0.1841 49.7262,6.4347 11.77552,5.151 26.40256,13.4228 30.75225,17.3909 4.5123,4.1164 22.30334,13.1743 26.12999,13.3035 3.20117,0.1081 8.98664,-1.6074 15.12001,-4.4833 4.74333,-2.2242 6.09181,-7.4726 2.9877,-11.6286 -3.39369,-4.5436 -7.03681,-5.4063 -26.41808,-6.2556 -14.93356,-0.6545 -16.56912,-0.9511 -16.56912,-3.0049 0,-4.3912 4.7035,-5.4541 24.38476,-5.5105 15.11429,-0.043 19.51599,-0.4618 22.66268,-2.1549 4.24352,-2.2832 5.80526,-5.9573 4.63901,-10.9136 -3.20138,-13.60543 -24.74063,-16.19886 -59.18945,-7.12673 -20.8392,5.48803 -34.81514,8.13343 -47.82647,9.05263 -11.34719,0.8017 -42.19703,-1.5574 -44.07481,-3.3704 -2.72704,-2.633 3.28091,-3.5556 23.27261,-3.5741 23.2571,-0.021 36.08582,-1.79293 55.49843,-7.66389 28.14171,-8.51091 37.75302,-10.25392 52.29115,-9.48297 9.54244,0.50602 12.41765,0.27976 12.91522,-1.01635 1.5096,-3.93243 -7.41546,-32.77073 -13.50364,-43.63238 -0.74035,-1.32082 -2.76085,-4.97707 -4.49001,-8.125 -5.68127,-10.34272 -17.03604,-25.38542 -26.80094,-35.50564 -10.47175,-10.85276 -9.08324,-10.37342 -22.0774,-7.62172 -3.94627,0.83568 -4.59006,0.42679 -12.17395,-7.7319 -4.40402,-4.73783 -7.94895,-9.17674 -7.8776,-9.86424 0.34071,-3.2826 -0.8241,-4.28795 -9.85796,-8.50833 -14.1495,-6.6103 -32.49564,-12.88122 -40.67301,-13.90251 -6.56003,-0.81929 -7.72382,-1.47915 -14.42772,-8.18038 -6.71643,-6.71372 -26.82754,-21.783 -31.41324,-23.53797 -1.0774,-0.41232 -3.88461,-2.05498 -6.23825,-3.65037 -2.35364,-1.59538 -7.41816,-3.8121 -11.2545,-4.92606 -3.83634,-1.11395 -8.1006,-2.73016 -9.47614,-3.59157 -1.37556,-0.86142 -6.44008,-2.55043 -11.2545,-3.75335 -9.89787,-2.47307 -34.91714,-3.04629 -37.11397,-0.85034 -0.93285,0.93248 -0.44171,2.92616 1.65978,6.73762 l 2.98464,5.41326 9.60654,0.87279 c 5.28362,0.48003 11.29518,1.74565 13.35905,2.8125 2.06388,1.06684 4.48684,1.93971 5.38437,1.93971 2.15539,0 15.99933,8.81056 15.99933,10.18229 0,1.59944 -2.3024,1.29358 -11.16517,-1.48323 -4.42143,-1.38527 -12.18272,-2.86882 -17.24733,-3.29677 l -9.20839,-0.77808 2.4053,6.1254 c 2.3077,5.87692 2.67476,6.1855 9.04863,7.60722 6.8446,1.52672 15.44713,4.86169 18.55436,7.19304 1.3043,0.97861 -1.14824,1.48857 -9.37876,1.95013 l -11.14488,0.625 0.3969,3.75 c 0.21833,2.0625 1.8243,6.94349 3.56887,10.84664 1.74456,3.90315 2.79887,7.70002 2.34291,8.4375 -1.43623,2.32292 -9.816,1.4724 -25.1951,-2.55722 -12.2418,-3.20758 -16.42765,-3.78198 -23.63058,-3.24268 -29.71528,2.22484 -60.13455,20.28067 -69.38504,41.18453 -1.39207,3.1458 -2.18971,6.60881 -1.77253,7.69556 1.34478,3.50302 -4.762,4.73437 -11.64955,2.34898 -11.00895,-3.81277 -22.18645,-9.45125 -27.70776,-13.97714 -9.09039,-7.4515 -26.56401,-25.41066 -29.90521,-30.73617 -11.18493,-17.82758 -11.77655,-18.59827 -12.83098,-16.71485 -1.43109,2.55618 -3.6867,21.19629 -3.6867,30.46642 0,9.04172 1.64524,11.81692 9.74903,16.44476 10.14121,5.79135 10.20084,5.98797 2.02547,6.67867 -8.57959,0.72485 -8.39739,-0.0869 -3.55048,15.81703 4.08486,13.40332 6.3451,16.12621 14.99184,18.06049 3.80066,0.85022 7.18585,1.99152 7.52264,2.53623 0.33677,0.54471 -1.65845,2.14839 -4.43383,3.56372 -2.7754,1.41534 -5.04617,3.07962 -5.04617,3.69839 0,2.4751 9.36826,19.34264 15.13269,27.24635 l 6.12581,8.39925 0,12.15629 c 0,6.68594 1.40681,22.10764 3.12626,34.27024 1.71943,12.1628 3.13485,25.267 3.14538,29.1205 0.0257,9.3934 1.46473,11.6359 4.85436,7.5647 1.40046,-1.682 2.56502,-3.4367 2.58789,-3.8993 0.10387,-2.0997 23.92263,-28.8331 30.33876,-34.0511 6.91007,-5.6198 7.28526,-5.7617 10.62925,-4.0205 1.90649,0.9926 7.96817,5.9501 13.47037,11.0166 16.99883,15.6527 34.07857,29.1315 44.83717,35.3843 5.78583,3.3626 6.03824,3.7346 5.36156,7.9029 -0.39056,2.4057 -2.06519,5.8332 -3.72141,7.6165 -1.65623,1.7833 -3.99297,4.7892 -5.19277,6.6798 l -2.18146,3.4375 6.24293,0 c 7.17168,0 23.08571,-3.2875 28.05874,-5.7964 4.9445,-2.4945 10.10586,-2.0949 17.54141,1.358 9.39299,4.3619 21.42414,7.7542 42.23207,11.9079 35.54451,7.0953 35.42942,7.0869 52.45799,3.8439 8.33885,-1.5882 15.51244,-2.5368 15.94127,-2.1081 1.2911,1.2906 -2.99216,5.1614 -9.0675,8.1943 -6.22782,3.1091 -7.28018,4.9235 -8.54437,14.7316 -0.46122,3.5785 -1.71933,8.9222 -2.79581,11.875 -1.07646,2.9529 -2.44192,6.9644 -3.03439,8.9145 l -1.07719,3.5457 7.13412,-0.502 c 3.92376,-0.2762 9.94776,-1.2216 13.38664,-2.101 z m -68.7775,-112.2723 c -8.80171,-2.2341 -15.40458,-5.4457 -23.00143,-11.1879 -3.02196,-2.2842 -6.21443,-4.1531 -7.09435,-4.1531 -3.09772,0 -13.00827,-16.8414 -14.462,-24.5759 -1.87462,-9.97369 -0.69581,-30.1342 2.07515,-35.49052 6.6778,-12.90827 21.56448,-29.71142 28.7381,-32.43773 8.78472,-3.33862 9.91813,0.18766 3.32001,10.3293 -9.46056,14.54132 -11.92165,21.42344 -12.48722,34.91865 -0.92618,22.1008 5.85218,36.1267 24.56594,50.8321 8.59984,6.7578 9.91819,8.2869 9.08525,10.5376 -1.26535,3.4192 -1.84392,3.4853 -10.73943,1.2275 z m 72.0978,-61.04999 c 0.25969,-1.34792 2.11025,-2.80379 4.3974,-3.45946 2.17193,-0.62267 4.27865,-2.04885 4.68157,-3.16933 0.40292,-1.12046 1.02951,-2.64741 1.39239,-3.39321 0.41019,-0.84304 -2.63978,-1.94541 -8.06262,-2.91415 -7.83317,-1.3993 -9.34458,-2.17034 -14.82494,-7.56279 -9.91946,-9.76031 -13.37824,-25.29735 -9.0531,-40.66706 2.32037,-8.24561 11.17069,-17.06033 20.10882,-20.02791 13.21121,-4.3863 28.38039,-0.52212 39.19531,9.98457 7.44667,7.23444 8.9558,9.87182 11.84408,20.69864 1.95783,7.33903 2.25232,10.54746 1.34047,14.60421 -1.89619,8.43595 -7.56014,16.71208 -15.01275,21.93654 -9.24477,6.4808 -25.75668,14.5836 -31.63848,15.52578 -4.23314,0.67808 -4.76223,0.48963 -4.36815,-1.55583 z m 29.67017,-21.32822 c 3.74892,-2.62479 10.15179,-12.70715 10.15179,-15.98564 0,-2.43695 -0.0743,-2.42736 -1.95166,0.25187 -2.73721,3.90634 -8.34624,6.52434 -13.93013,6.50185 -5.4552,-0.022 -6.93818,-0.78266 -8.94101,-4.58618 -1.98933,-3.77793 -1.79698,-9.61543 0.49774,-15.10527 2.91484,-6.97342 6.47913,-10.08542 12.60249,-11.00331 2.9945,-0.44888 5.14412,-1.302 4.77696,-1.89585 -0.36715,-0.59384 -3.80498,-3.16137 -7.63961,-5.70564 -6.23728,-4.13842 -7.85519,-4.6356 -15.35231,-4.71776 -7.33843,-0.0805 -8.95543,0.34585 -13.00661,3.42888 -6.54003,4.97711 -8.36456,8.31271 -9.83997,17.98956 -2.25234,14.77232 2.352,24.20836 14.59274,29.90612 7.90169,3.67803 23.37607,4.18652 28.03958,0.92137 z m -51.73199,-64.18695 c -1.12352,-1.81716 1.45037,-5.99103 9.04862,-14.67346 8.38214,-9.57819 16.32857,-14.97545 23.66832,-16.07567 5.16725,-0.77457 5.92916,-0.51785 10.03165,3.38003 6.46517,6.14273 11.63219,13.56441 11.63219,16.70796 0,3.69283 -6.69592,5.63531 -19.4254,5.63531 -11.28369,0 -24.72545,2.05926 -29.59463,4.53387 -4.02358,2.04485 -4.38039,2.0776 -5.36075,0.49196 z"
         style="fill:#0e0906" />
      <path
         style="opacity:1;fill:#f6855f;fill-opacity:1;fill-rule:evenodd;stroke:none;stroke-width:2;stroke-linecap:square;stroke-linejoin:miter;stroke-miterlimit:4;stroke-dasharray:none;stroke-dashoffset:0;stroke-opacity:1"
         d="m 373.23349,510.47601 c -3.84443,0.68542 -10.03956,-1.22644 -12.39664,2.82648 -0.12602,4.37127 3.06603,8.31463 4.96254,11.94123 15.36288,0.429 31.61946,4.14677 43.22375,14.81309 -2.4071,0.99537 -6.59269,-1.15717 -9.51668,-1.61583 -8.79534,-2.41396 -17.85647,-3.6287 -26.94556,-4.20082 -0.44246,3.11663 2.16183,6.8204 3.28027,10.06123 3.77987,5.45592 11.66877,5.06755 17.20174,7.74921 2.97357,1.18129 6.22931,1.91904 8.69848,4.07208 -6.51608,1.47992 -13.72858,0.60639 -19.89719,2.2949 0.0207,7.84534 4.96401,14.69249 5.67079,22.27959 -3.62477,2.30693 -8.8117,0.16765 -12.97772,-1.6e-4 -13.61195,-2.13651 -27.09265,-7.74634 -41.0706,-4.8068 -21.85799,3.53476 -43.28311,13.58745 -57.36911,31.0929 -5.24687,5.36366 -6.94518,12.78656 -8.60423,19.77563 -5.96956,2.02383 -12.44827,-1.67368 -18.16154,-3.51339 -20.27628,-7.76092 -35.25553,-24.36559 -48.6497,-40.81404 -4.86218,-5.64455 -7.91661,-13.0218 -13.2394,-18.0966 -3.55475,1.44721 -2.28944,6.78192 -3.40152,9.76616 -0.86172,9.90742 -3.4248,20.2947 -0.58375,30.06549 2.83084,6.80484 10.7827,8.92606 15.93947,13.13081 -3.67066,2.15076 -10.94839,-0.62079 -12.35937,4.68702 1.96931,8.89537 4.27843,18.12651 9.06451,25.96991 3.76286,5.09748 11.24989,4.79179 16.02698,7.64965 -2.21857,3.28334 -8.98071,3.96522 -8.09858,8.77278 5.23754,12.08043 12.68872,23.11579 20.34612,33.78972 -0.2586,27.79267 5.19758,55.19724 7.35144,82.82687 -0.46644,2.7516 2.63122,3.37163 3.99175,1.26414 10.89649,-14.35142 22.57431,-28.38585 36.22399,-40.28544 2.55181,-2.24196 5.23734,-4.51102 8.17961,-1.50723 19.97161,15.48317 37.90454,33.73011 59.62836,46.90594 4.40646,2.02422 3.54402,7.42739 1.27548,10.80675 -2.35326,4.73091 -7.78731,8.60108 -8.37086,13.60243 13.53276,0.72651 26.62926,-3.28992 39.43782,-7.02568 9.00183,-0.37672 16.88989,5.82121 25.57868,7.61311 19.87527,5.3472 40.06561,10.05504 60.54791,12.29704 12.09384,1.33158 23.93529,-2.75324 35.79613,-3.51366 -1.12002,3.62515 -5.81026,5.29701 -8.72886,7.42862 -7.49629,2.5359 -7.80504,11.30244 -9.16515,17.77308 -1.39563,7.12303 -4.18786,14.11494 -5.80692,21.01222 4.16768,2.14323 9.49454,-0.23669 13.95737,-0.40841 15.34067,-3.12524 30.78047,-7.61433 44.31608,-15.64612 23.13794,-17.1708 39.72328,-41.30565 55.1828,-65.22459 1.95592,-3.69246 4.75581,-7.55473 5.48117,-11.48095 -15.55733,-7.25972 -26.56018,-21.38307 -41.88676,-29.12353 -13.28426,-6.95217 -27.27876,-12.8909 -42.05677,-15.69335 -3.70771,-1.57869 -8.44314,-1.55542 -11.78402,-3.35807 3.06146,-3.65483 8.7987,-1.61612 12.90067,-1.93185 17.00386,1.17912 33.95518,5.31643 48.78917,13.95805 15.39578,7.42796 28.30703,20.09538 45.17184,24.34204 6.95852,-0.34936 14.98724,-2.73385 19.1387,-8.6723 2.34663,-5.42742 -3.38012,-11.53515 -8.8133,-11.76619 -11.30247,-2.18001 -23.05869,-1.35905 -34.26945,-3.65789 -2.44114,-2.32194 1.50427,-5.36102 4.02093,-5.22672 13.70583,-2.27035 28.03629,0.0316 41.57388,-3.41642 7.0057,-2.93784 6.67961,-12.99441 1.40838,-17.48236 -9.8545,-8.06537 -23.76365,-6.44912 -35.55416,-5.12059 -26.1972,4.29459 -51.72347,14.34906 -78.58116,13.05062 -10.89196,-0.49144 -22.21315,0.0164 -32.65686,-3.47476 -1.62115,-1.19217 2.58574,-1.68828 3.01448,-1.71954 21.52663,-1.04567 43.53585,-0.24959 64.62467,-5.81271 19.49999,-4.80062 38.56998,-12.74963 58.98681,-12.1121 5.48701,-0.48912 11.47247,0.22511 16.66067,-0.98538 0.87771,-10.1383 -3.64755,-19.84511 -6.69109,-29.30483 -9.39453,-25.08983 -25.41297,-47.46406 -44.88406,-65.71447 -5.18725,-5.21107 -12.65469,-0.39962 -18.71732,-0.96108 -6.77393,-4.71951 -12.28643,-11.44078 -16.46943,-18.50987 -1.1312,-5.17566 -7.85372,-5.91086 -11.67605,-8.40335 -14.31736,-6.61924 -29.49995,-11.0549 -44.79033,-14.69145 -9.53002,-6.15537 -16.9307,-15.11217 -26.48167,-21.3318 -18.17701,-13.39308 -39.51497,-22.73298 -61.82151,-26.35034 -5.03178,-0.62638 -10.11192,-0.70437 -15.17612,-0.65812 z m 142.58973,70.31516 c 3.87455,4.6222 9.90708,9.50335 9.48103,16.06751 -3.96649,4.0958 -10.81981,3.38791 -16.13395,3.95123 -12.1775,-0.23444 -24.3699,1.92878 -35.83179,5.68538 -1.98641,-0.80375 0.56048,-4.09154 1.25766,-5.29156 7.51933,-9.8114 16.10265,-20.73113 28.34421,-24.30869 3.90472,-0.60493 8.74383,-2.40153 11.01549,1.976 0.62245,0.64005 1.2449,1.28009 1.86735,1.92013 z m -12.16488,28.71373 c 12.93563,-0.31104 24.56045,7.24631 32.68763,16.88037 5.7602,6.44168 7.10931,15.58122 8.59615,23.79242 0.4814,11.0141 -6.87136,21.30084 -15.55698,27.35234 -10.13712,6.47739 -20.78518,13.55363 -32.89997,15.41112 -3.19379,-0.215 0.91223,-3.25395 1.89297,-3.60116 2.84221,-1.55084 7.89031,-4.70059 5.9301,-8.46972 -7.02282,-3.35852 -16.37905,-2.47111 -21.45953,-9.39999 -8.65512,-7.78336 -11.95999,-19.84506 -10.81614,-31.14845 -0.37753,-10.41113 5.66494,-20.02585 14.33303,-25.53511 5.10744,-3.40766 11.28975,-5.27039 17.29274,-5.28182 z m -90.57701,35.09762 c 4.29092,0.42359 0.79245,5.67261 -0.33872,7.73716 -6.33758,10.73425 -13.54728,21.84465 -13.64885,34.78605 -1.58772,14.92685 1.54187,30.95394 11.86772,42.33276 5.9857,7.77561 14.76117,12.8042 21.01708,20.23753 1.52727,4.02443 -4.35781,4.13712 -6.815,3.3451 -12.87575,-2.2127 -23.6207,-10.21174 -34.32617,-17.16795 -9.192,-9.67169 -14.47129,-23.23104 -13.46953,-36.54165 0.14022,-9.55252 0.28331,-19.92027 6.70317,-27.717 6.91512,-9.45303 13.76732,-19.81993 24.20011,-25.66845 1.51242,-0.69644 3.12248,-1.32457 4.81019,-1.34355 z"
         id="path4213" />
      <path
         style="fill:#e26248;stroke:#e26248;stroke-width:0.93612593;stroke-opacity:1"
         d="m 344.04102,575.62794 c -1.54179,-0.0164 -3.08249,0.0531 -4.75586,0.19336 -29.65396,2.48508 -59.68921,20.44604 -68.86524,41.18164 -1.39207,3.1458 -2.18866,6.60856 -1.77148,7.69531 0.52571,1.36946 -0.28184,2.37093 -2.63086,3.26367 -2.96681,1.12754 -3.18407,1.5584 -1.74414,3.45508 3.42026,4.50514 6.90121,6.48677 11.44336,6.51367 3.59077,0.0213 4.68945,-0.46854 4.68945,-2.0957 0,-3.62578 2.30059,-0.18811 6.80859,10.17773 2.52718,5.81104 6.53811,12.24035 9.96485,15.97071 3.15468,3.43417 5.73633,7.22644 5.73633,8.42773 0,1.49444 1.87527,2.80934 5.93945,4.16406 14.78428,4.99649 1.3317,-12.36179 -3.43945,-19.82226 0,-1.76317 -1.26501,-6.12255 -2.8125,-9.6875 -2.29797,-5.29381 -2.81446,-8.77136 -2.81446,-18.98047 0,-6.875 0.49787,-12.78125 1.10742,-13.125 0.60953,-0.34375 2.77744,3.59375 4.81641,8.75 2.03896,5.15625 4.21359,9.90938 4.83203,10.5625 0.61843,0.65312 1.125,2.09825 1.125,3.21289 0,3.05841 13.73409,23.47281 20.72656,30.80664 4.46975,4.68795 7.44362,6.69569 10.84766,7.32617 2.57916,0.47775 4.68945,0.49737 4.68945,0.043 0,-1.62575 -3.62169,-7.78906 -5.48632,-9.33594 -1.63854,-1.35934 -5.10489,-10.99538 -6.45118,-17.93359 -0.23395,-1.20571 -0.77155,-2.74939 -1.19336,-3.43164 -0.42185,-0.68225 -2.05837,-5.68062 -3.63671,-11.10742 -2.84481,-9.78117 -2.57853,-13.95291 0.88476,-13.84766 1.47174,0.0448 8.08532,9.41099 9.94922,14.08984 1.8166,4.56009 14.74875,18.05991 22.18945,23.16407 7.03417,4.82526 9.89163,4.91085 5.59766,0.16797 -1.04777,-1.15731 -3.04013,-6.26333 -4.42773,-11.34766 -1.38759,-5.08432 -3.42545,-11.1906 -4.5293,-13.56836 -1.36723,-2.9451 -2.04058,-8.12514 -2.11328,-16.25 -0.11003,-12.29219 0.80557,-16.07296 3.39648,-14.02539 0.89653,0.70853 3.09576,0.57931 5.75195,-0.33789 3.70297,-1.27866 4.62787,-2.46217 6.64454,-8.50977 1.05408,-3.19185 3.12473,-6.80642 1.76753,-9.70697 0,-0.51346 -7.07425,-1.2332 -14.70309,-3.12506 -8.27123,-2.05116 -12.90784,-2.8786 -17.5332,-2.92773 z"
         id="path4201" />
      <path
         style="fill:#e26248;stroke:#e26248;stroke-width:1.87225187;stroke-miterlimit:4;stroke-dasharray:none;stroke-opacity:1"
         d="m 606.26644,704.75968 c -9.58168,-0.20372 -21.81981,1.69315 -36.26449,5.69904 -33.94702,9.41442 -52.57809,11.24809 -83.45619,8.2143 l -2.99306,-0.29505 c -1.09346,0.15164 -2.18529,0.3025 -3.25188,0.43951 l 3.69836,1.78481 c 3.12181,1.50593 6.68016,3.68621 7.90644,4.84482 1.22629,1.15861 2.23815,1.5693 2.24826,0.91201 0.0106,-0.65731 0.61874,-0.3033 1.34935,0.78613 1.0399,1.55066 1.15418,1.33555 0.52749,-0.99041 -0.75403,-2.79868 -0.43012,-2.97126 5.57126,-2.97126 13.17403,0 33.31729,4.04462 43.64542,8.76316 11.91115,5.44178 26.70637,14.18028 31.10616,18.37233 3.31096,3.15466 20.66972,13.07358 24.79998,14.17129 1.31807,0.35042 3.24948,0.33726 4.29302,-0.0288 1.04356,-0.36616 3.60468,-1.2546 5.69177,-1.97465 7.45954,-2.5736 10.10363,-4.44176 11.2966,-7.98322 0.9655,-2.86618 0.69592,-4.3138 -1.33355,-7.15166 -3.43277,-4.80016 -7.11775,-5.71172 -26.72225,-6.60901 -15.10557,-0.69138 -16.7592,-1.00577 -16.7592,-3.17553 0,-4.63912 4.75771,-5.7612 24.66564,-5.82079 15.2884,-0.0457 19.74021,-0.48726 22.92314,-2.2759 6.2019,-3.48518 6.82866,-11.54766 1.3849,-17.80902 -3.82044,-4.39423 -10.74548,-6.6983 -20.32717,-6.902 z"
         id="path4199" />
    </g>
  </g>
</svg>
