<?xml version="1.0" encoding="UTF-8" standalone="no"?>
<!-- Created with Inkscape (http://www.inkscape.org/) -->

<svg
   xmlns:dc="http://purl.org/dc/elements/1.1/"
   xmlns:cc="http://creativecommons.org/ns#"
   xmlns:rdf="http://www.w3.org/1999/02/22-rdf-syntax-ns#"
   xmlns:svg="http://www.w3.org/2000/svg"
   xmlns="http://www.w3.org/2000/svg"
   xmlns:sodipodi="http://sodipodi.sourceforge.net/DTD/sodipodi-0.dtd"
   xmlns:inkscape="http://www.inkscape.org/namespaces/inkscape"
   width="500"
   height="500"
   viewBox="0 0 499.99998 500.00001"
   id="svg2"
   version="1.1"
   inkscape:version="0.91 r13725"
   sodipodi:docname="crabe.svg">
  <defs
     id="defs4" />
  <sodipodi:namedview
     id="base"
     pagecolor="#ffffff"
     bordercolor="#666666"
     borderopacity="1.0"
     inkscape:pageopacity="0.0"
     inkscape:pageshadow="2"
     inkscape:zoom="0.74612403"
     inkscape:cx="400.93525"
     inkscape:cy="302.7013"
     inkscape:document-units="px"
     inkscape:current-layer="layer1"
     showgrid="false"
     units="px"
     inkscape:window-width="1366"
     inkscape:window-height="705"
     inkscape:window-x="-8"
     inkscape:window-y="-8"
     inkscape:window-maximized="1" />
  <metadata
     id="metadata7">
    <rdf:RDF>
      <cc:Work
         rdf:about="">
        <dc:format>image/svg+xml</dc:format>
        <dc:type
           rdf:resource="http://purl.org/dc/dcmitype/StillImage" />
        <dc:title></dc:title>
      </cc:Work>
    </rdf:RDF>
  </metadata>
  <g
     inkscape:label="Layer 1"
     inkscape:groupmode="layer"
     id="layer1"
     transform="translate(0,-552.36216)">
    <path
       style="fill:#d45500;fill-rule:evenodd;stroke:#000000;stroke-width:0.76880598px;stroke-linecap:butt;stroke-linejoin:miter;stroke-opacity:1"
       d="m 194.84062,714.61048 c 0,0 -2.6935,24.16874 0,35.68913 2.70337,11.56263 15.70758,31.36318 15.70758,31.36318 l 13.74413,-6.48893 c 0,0 -14.88284,-18.04644 -18.65275,-29.2002 -3.44269,-10.18568 -2.94517,-32.44467 -2.94517,-32.44467 z"
       id="path4262"
       inkscape:connector-curvature="0"
       sodipodi:nodetypes="caccacc" />
    <path
       style="fill:#d45500;fill-rule:evenodd;stroke:#000000;stroke-width:0.76880598px;stroke-linecap:butt;stroke-linejoin:miter;stroke-opacity:1"
       d="m 288.61175,710.80551 c 0,0 2.6935,24.16874 0,35.68914 -2.70337,11.56263 -15.70758,31.36318 -15.70758,31.36318 l -13.74413,-6.48893 c 0,0 14.88285,-18.04645 18.65275,-29.20021 3.44269,-10.18567 2.94517,-32.44467 2.94517,-32.44467 z"
       id="path4262-9"
       inkscape:connector-curvature="0"
       sodipodi:nodetypes="caccacc" />
    <path
       style="fill:#d45500;fill-rule:evenodd;stroke:#000000;stroke-width:0.76880598px;stroke-linecap:butt;stroke-linejoin:miter;stroke-opacity:1"
       d="m 122.19306,729.75133 35.34205,45.42253 -18.65275,19.4668 -34.36033,-64.88933 z"
       id="path4140"
       inkscape:connector-curvature="0" />
    <path
       style="fill:#d45500;fill-rule:evenodd;stroke:#000000;stroke-width:0.76880598px;stroke-linecap:butt;stroke-linejoin:miter;stroke-opacity:1"
       d="m 352.1842,722.22645 -35.34205,45.42254 18.65275,19.4668 34.36034,-64.88934 z"
       id="path4140-8"
       inkscape:connector-curvature="0" />
    <path
       style="fill:#d45500;fill-rule:evenodd;stroke:#000000;stroke-width:0.76880598px;stroke-linecap:butt;stroke-linejoin:miter;stroke-opacity:1"
       d="m 348.97126,800.04811 c 0,0 41.98329,-31.02156 64.79378,-27.03722 27.358,4.77865 64.79377,57.31891 64.79377,57.31891 0,0 -41.14356,-40.62444 -66.75722,-42.17807 -22.09588,-1.34027 -60.86688,29.2002 -60.86688,29.2002 z"
       id="path4162"
       inkscape:connector-curvature="0"
       sodipodi:nodetypes="cacacc" />
    <path
       style="fill:#aa4400;fill-rule:evenodd;stroke:#000000;stroke-width:0.76880598px;stroke-linecap:butt;stroke-linejoin:miter;stroke-opacity:1"
       d="m 341.16913,825.69273 c 0,0 41.83,-29.75021 64.79377,-27.03722 22.11117,2.61226 55.95825,40.01508 55.95825,40.01508 0,0 -37.20323,-25.31945 -57.9217,-24.87424 -22.12514,0.47544 -60.86687,29.20021 -60.86687,29.20021 z"
       id="path4162-3"
       inkscape:connector-curvature="0"
       sodipodi:nodetypes="cacacc" />
    <path
       style="fill:#d45500;fill-rule:evenodd;stroke:#000000;stroke-width:0.76880598px;stroke-linecap:butt;stroke-linejoin:miter;stroke-opacity:1"
       d="m 334.29706,858.1374 c 0,0 42.13995,-31.98886 64.79377,-27.03723 21.57289,4.71537 48.10446,49.74849 48.10446,49.74849 0,0 -30.4205,-32.98518 -50.06791,-34.60765 -22.06744,-1.82231 -60.86687,29.20021 -60.86687,29.20021 z"
       id="path4162-5"
       inkscape:connector-curvature="0"
       sodipodi:nodetypes="cacacc" />
    <path
       style="fill:#d45500;fill-rule:evenodd;stroke:#000000;stroke-width:0.76880598px;stroke-linecap:butt;stroke-linejoin:miter;stroke-opacity:1"
       d="m 320.55292,884.09313 c 0,0 42.03349,-31.35597 64.79377,-27.03722 19.44873,3.69038 45.1593,42.17806 45.1593,42.17806 0,0 -29.42305,-26.35979 -47.12274,-27.03722 -22.11601,-0.84646 -60.86688,29.2002 -60.86688,29.2002 z"
       id="path4162-8"
       inkscape:connector-curvature="0"
       sodipodi:nodetypes="cacacc" />
    <path
       style="fill:#d45500;fill-rule:evenodd;stroke:#000000;stroke-width:0.76880598px;stroke-linecap:butt;stroke-linejoin:miter;stroke-opacity:1"
       d="m 146.21953,801.84748 c 0,0 -41.98329,-31.02155 -64.793769,-27.03722 -27.35801,4.77866 -64.793777,57.31891 -64.793777,57.31891 0,0 41.143557,-40.62443 66.757217,-42.17807 22.095879,-1.34026 60.866879,29.20021 60.866879,29.20021 z"
       id="path4162-89"
       inkscape:connector-curvature="0"
       sodipodi:nodetypes="cacacc" />
    <path
       style="fill:#d45500;fill-rule:evenodd;stroke:#000000;stroke-width:0.76880598px;stroke-linecap:butt;stroke-linejoin:miter;stroke-opacity:1"
       d="m 154.02166,836.14402 c 0,0 -41.83,-29.75021 -64.793769,-27.03722 -22.11117,2.61226 -55.958253,40.01508 -55.958253,40.01508 0,0 37.203233,-25.31945 57.921703,-24.87424 22.125139,0.47544 60.866879,29.20021 60.866879,29.20021 z"
       id="path4162-3-0"
       inkscape:connector-curvature="0"
       sodipodi:nodetypes="cacacc" />
    <path
       style="fill:#d45500;fill-rule:evenodd;stroke:#000000;stroke-width:0.76880598px;stroke-linecap:butt;stroke-linejoin:miter;stroke-opacity:1"
       d="m 160.89373,859.93677 c 0,0 -42.13995,-31.98886 -64.793769,-27.03722 -21.57289,4.71537 -48.10446,49.74849 -48.10446,49.74849 0,0 30.4205,-32.98518 50.06791,-34.60765 22.067439,-1.82231 60.866869,29.20021 60.866869,29.20021 z"
       id="path4162-5-6"
       inkscape:connector-curvature="0"
       sodipodi:nodetypes="cacacc" />
    <path
       style="fill:#d45500;fill-rule:evenodd;stroke:#000000;stroke-width:0.76880598px;stroke-linecap:butt;stroke-linejoin:miter;stroke-opacity:1"
       d="m 174.63787,885.89251 c 0,0 -42.03349,-31.35598 -64.79377,-27.03723 -19.448719,3.69039 -45.159299,42.17807 -45.159299,42.17807 0,0 29.44414,-25.86911 47.122739,-27.03723 24.08619,-1.5915 67.73895,28.11872 67.73895,28.11872 z"
       id="path4162-8-4"
       inkscape:connector-curvature="0"
       sodipodi:nodetypes="cacacc" />
    <ellipse
       style="opacity:1;fill:#ffff00;fill-opacity:1;fill-rule:nonzero;stroke:#000000;stroke-width:7.68805981;stroke-linecap:round;stroke-linejoin:round;stroke-miterlimit:4;stroke-dasharray:none;stroke-dashoffset:0;stroke-opacity:1"
       id="path4227"
       cx="203.18527"
       cy="695.68445"
       rx="21.107063"
       ry="21.089035" />
    <ellipse
       style="opacity:1;fill:#ff0000;fill-opacity:1;fill-rule:nonzero;stroke:#000000;stroke-width:3.72172236;stroke-linecap:round;stroke-linejoin:round;stroke-miterlimit:4;stroke-dasharray:none;stroke-dashoffset:0;stroke-opacity:1"
       id="path4227-4"
       cx="210.54819"
       cy="698.38818"
       rx="10.234137"
       ry="10.192665" />
    <ellipse
       style="opacity:1;fill:#ffff00;fill-opacity:1;fill-rule:nonzero;stroke:#000000;stroke-width:7.68805981;stroke-linecap:round;stroke-linejoin:round;stroke-miterlimit:4;stroke-dasharray:none;stroke-dashoffset:0;stroke-opacity:1"
       id="path4227-9"
       cx="-286.14093"
       cy="694.06219"
       rx="21.107063"
       ry="21.089035"
       transform="scale(-1,1)" />
    <ellipse
       style="opacity:1;fill:#ff0000;fill-opacity:1;fill-rule:nonzero;stroke:#000000;stroke-width:3.72172236;stroke-linecap:round;stroke-linejoin:round;stroke-miterlimit:4;stroke-dasharray:none;stroke-dashoffset:0;stroke-opacity:1"
       id="path4227-4-1"
       cx="-278.77798"
       cy="696.76587"
       rx="10.234137"
       ry="10.192665"
       transform="scale(-1,1)" />
    <path
       style="fill:#ff6600;fill-rule:evenodd;stroke:#000000;stroke-width:0.76880598px;stroke-linecap:butt;stroke-linejoin:miter;stroke-opacity:1"
       d="m 157.53511,902.78956 c -22.17868,-11.71801 -35.32463,-46.5665 -35.34205,-74.62274 -0.0189,-30.4742 12.90979,-68.9824 38.28723,-81.11167 45.97683,-21.97486 116.73545,-19.97492 165.91133,-2.16298 24.76047,8.96846 36.3107,47.01189 37.3055,75.70423 0.91687,26.44468 -10.01939,56.90089 -29.45172,72.45976 -41.1165,32.92073 -122.54739,38.35012 -176.71029,9.7334 z"
       id="path4136"
       inkscape:connector-curvature="0"
       sodipodi:nodetypes="sassass" />
    <path
       style="fill:none;fill-rule:evenodd;stroke:#000000;stroke-width:6.30420876;stroke-linecap:butt;stroke-linejoin:miter;stroke-miterlimit:4;stroke-dasharray:none;stroke-opacity:1"
       d="m 165.38891,803.29257 c 0,0 45.71249,33.507 71.66584,33.52616 27.71522,0.0205 76.57446,-35.68913 76.57446,-35.68913"
       id="path4160"
       inkscape:connector-curvature="0"
       sodipodi:nodetypes="cac" />
    <path
       style="fill:#d45500;fill-rule:evenodd;stroke:#000000;stroke-width:0.76880598px;stroke-linecap:butt;stroke-linejoin:miter;stroke-opacity:1"
       d="m 39.728257,638.90626 c 0,0 -6.139491,54.12075 5.890344,75.70422 10.07333,18.07318 29.90052,31.7713 49.08619,33.52616 13.747379,1.25743 30.264129,-4.94191 38.287229,-17.30382 9.53342,-14.68901 6.62188,-36.47734 2.94517,-54.07445 -2.69497,-12.89841 -17.67103,-34.60765 -17.67103,-34.60765 l -14.72585,48.66701 z"
       id="path4138"
       inkscape:connector-curvature="0"
       sodipodi:nodetypes="caaaaccc" />
    <path
       style="fill:#d45500;fill-rule:evenodd;stroke:#000000;stroke-width:0.76880598px;stroke-linecap:butt;stroke-linejoin:miter;stroke-opacity:1"
       d="m 434.64901,631.38139 c 0,0 6.13949,54.12074 -5.89035,75.70422 -10.07332,18.07318 -29.90051,31.7713 -49.08619,33.52616 -13.74737,1.25743 -30.26413,-4.94191 -38.28723,-17.30383 -9.53342,-14.689 -6.62188,-36.47733 -2.94517,-54.07445 2.69497,-12.8984 17.67103,-34.60764 17.67103,-34.60764 l 14.72586,48.667 z"
       id="path4138-8"
       inkscape:connector-curvature="0"
       sodipodi:nodetypes="caaaaccc" />
  </g>
</svg>
