<svg width="581" height="456" xmlns="http://www.w3.org/2000/svg">

 <g>
  <title>Layer 1</title>
  <path id="imagebot_3" fill-rule="evenodd" clip-rule="evenodd" d="M 430.4860001373291 41.84200011444092 C 391.5980001373291 44.09100011444092 352.0410001373291 33.70300011444092 336.7980001373291 66.32900011444092 C 321.0870001373291 99.95600011444091 365.9890001373291 121.67700011444092 386.8360001373291 138.72500011444092 C 408.4160001373291 156.37100011444093 423.5440001373291 179.57600011444092 434.7450001373291 201.5380001144409 C 459.5120001373291 167.14200011444092 485.4440001373291 119.22600011444092 541.2050001373291 113.17200011444092 C 552.8240001373291 111.91100011444092 568.2150001373291 111.44500011444092 580.5970001373291 116.36600011444092 C 578.0070001373291 124.95600011444091 566.6720001373291 123.50900011444092 559.3050001373291 125.94800011444092 C 546.7850001373291 130.0920001144409 530.9770001373291 136.9190001144409 530.5590001373291 152.56500011444092 C 530.3930001373291 158.75200011444093 534.6420001373291 162.4680001144409 536.9470001373292 169.5990001144409 C 547.716000137329 202.9070001144409 547.0880001373291 239.85900011444093 535.8820001373291 268.61200011444095 C 529.9550001373291 283.8220001144409 517.1330001373291 302.2430001144409 530.5600001373291 316.52100011444094 C 532.5350001373291 318.62200011444094 540.0760001373291 322.9170001144409 545.4650001373291 325.0390001144409 C 553.0170001373291 328.0110001144409 570.865000137329 328.0770001144409 569.9510001373291 337.81400011444094 C 569.0960001373292 346.92700011444094 544.2820001373291 345.81900011444094 530.5590001373291 343.1360001144409 C 515.4150001373291 340.1790001144409 490.2800001373291 322.5530001144409 480.5200001373291 313.32600011444094 C 470.6990001373291 304.0410001144409 461.3270001373291 292.5190001144409 454.9690001373291 282.4520001144409 C 447.6690001373291 270.8900001144409 446.5230001373291 256.86900011444095 436.8700001373291 245.1880001144409 C 431.1240001373291 251.12000011444093 429.1890001373291 259.4260001144409 421.9650001373291 263.28800011444093 C 408.5590001373291 270.4520001144409 395.7490001373291 270.85300011444093 385.7670001373291 282.4520001144409 C 379.4120001373291 289.83600011444094 377.4100001373291 300.1590001144409 371.9260001373291 308.00400011444094 C 367.2710001373291 314.6640001144409 359.5470001373291 321.7310001144409 353.8270001373291 327.1660001144409 C 340.8690001373291 339.4830001144409 323.3930001373291 350.5630001144409 304.8530001373291 358.0410001144409 C 288.3780001373291 393.8940001144409 328.3430001373291 411.58800011444094 364.4730001373291 408.0800001144409 C 374.7760001373291 407.07900011444093 384.1210001373291 400.82400011444093 393.2190001373291 403.8210001144409 C 389.8330001373291 420.75200011444093 366.6100001373291 433.1810001144409 349.5690001373291 436.82600011444094 C 259.9530001373291 455.9840001144409 195.2590001373291 404.1320001144409 158.9990001373291 356.9760001144409 C 122.6390001373291 345.5420001144409 106.2000001373291 315.08800011444094 77.0200001373291 290.96800011444094 C 46.0100001373291 265.3340001144409 1.3732910142394417e-7 252.38000011444092 2.4950001373291015 202.60200011444093 C 7.495000137329102 199.5140001144409 10.340000137329103 206.4670001144409 14.206000137329102 207.9260001144409 C 13.453000137329102 203.26800011444092 14.762000137329101 200.67400011444093 17.4000001373291 199.40900011444091 C 25.3680001373291 197.82800011444093 25.895000137329102 203.69000011444092 30.1750001373291 205.79600011444091 C 29.398000137329102 200.54100011444092 27.1240001373291 196.78000011444092 28.046000137329102 189.82600011444092 C 62.5190001373291 171.3120001144409 84.2090001373291 145.09700011444093 107.8950001373291 116.36600011444092 C 122.42800013732911 98.73700011444092 136.3820001373291 81.67100011444091 160.0620001373291 72.71600011444092 C 170.3490001373291 68.82600011444092 182.76000013732911 68.43200011444092 194.1310001373291 63.134000114440916 C 202.64100013732912 59.16900011444092 210.0940001373291 48.024000114440916 217.5530001373291 41.84100011444092 C 242.7180001373291 20.98300011444092 290.6030001373291 1.1444091807533141e-7 337.8530001373291 2.449000114440918 C 355.9140001373291 3.385000114440918 377.9350001373291 10.332000114440918 395.3430001373291 17.354000114440918 C 409.5730001373291 23.13400011444092 426.4530001373291 30.153000114440918 430.4730001373291 41.88300011444092 L 430.4860001373291 41.84200011444092 z M 341.0660001373291 5.644000114440918 C 301.8700001373291 2.427000114440918 266.6130001373291 18.04300011444092 238.8560001373291 30.13100011444092 C 237.0070001373291 42.122000114440915 232.0680001373291 51.02300011444092 228.2100001373291 61.006000114440916 C 255.4450001373291 61.80600011444092 276.3140001373291 68.97200011444092 296.3480001373291 76.97500011444092 C 304.2800001373291 72.48600011444091 313.5150001373291 69.30000011444092 327.2230001373291 70.58700011444091 C 342.2910001373291 56.210000114440916 353.7160001373291 38.506000114440916 380.4560001373291 37.58300011444092 C 395.1850001373291 37.07400011444092 409.6350001373291 41.98900011444092 427.2990001373291 40.777000114440916 C 407.1590001373291 24.79400011444092 374.9990001373291 8.430000114440919 341.0690001373291 5.644000114440918 z M 226.0760001373291 64.20000011444091 C 201.3020001373291 77.31600011444093 195.7700001373291 102.25600011444092 190.9430001373291 137.66100011444092 C 188.2940001373291 157.08800011444092 188.9610001373291 177.61500011444093 185.6200001373291 195.1520001144409 C 202.6880001373291 191.6690001144409 222.2190001373291 196.17300011444092 223.9470001373291 211.1220001144409 C 225.2320001373291 222.23200011444092 216.8920001373291 235.85100011444092 212.2360001373291 246.25500011444092 C 207.4560001373291 256.9350001144409 197.1060001373291 266.19400011444094 195.2010001373291 277.1300001144409 C 193.1310001373291 289.0250001144409 196.9340001373291 305.3270001144409 199.4600001373291 314.3920001144409 C 204.3560001373291 331.96300011444094 215.5490001373291 346.3160001144409 225.0110001373291 360.1720001144409 C 264.2570001373291 366.1400001144409 312.7170001373291 360.1180001144409 333.6010001373291 337.8150001144409 C 280.5220001373291 328.7360001144409 274.6470001373291 272.52100011444094 265.4640001373291 217.50500011444092 C 264.5630001373291 212.1110001144409 261.9170001373291 206.95300011444093 261.2050001373291 201.53500011444092 C 254.86700013732911 153.30500011444093 267.5230001373291 99.43500011444092 293.1450001373291 78.03500011444092 C 272.1550001373291 72.06700011444092 254.4250001373291 62.81800011444092 226.0750001373291 64.20000011444091 z M 132.3860001373291 92.94500011444092 C 126.4970001373291 100.62100011444092 115.9860001373291 112.79000011444091 105.7700001373291 124.88500011444091 C 90.3620001373291 143.12700011444093 71.07100013732911 150.1700001144409 79.1540001373291 178.1170001144409 C 89.5290001373291 181.77500011444093 97.8450001373291 188.1520001144409 96.1880001373291 201.5390001144409 C 92.3870001373291 232.24500011444093 38.664000137329104 213.9550001144409 62.1190001373291 183.44000011444092 C 57.359000137329105 183.23200011444092 55.5160001373291 180.10700011444092 52.5370001373291 178.1170001144409 C 48.3420001373291 186.1100001144409 33.508000137329105 185.23700011444092 31.244000137329103 194.0870001144409 C 28.8740001373291 203.3480001144409 38.4390001373291 208.7410001144409 42.9550001373291 216.4440001144409 C 47.9430001373291 217.1330001144409 55.7040001373291 215.05200011444092 58.9250001373291 217.5080001144409 C 54.8050001373291 216.58300011444092 55.1380001373291 220.10900011444093 52.5370001373291 220.70200011444092 C 38.6870001373291 219.25200011444093 23.787000137329102 217.8900001144409 14.209000137329102 212.18500011444092 C 10.891000137329101 210.20700011444092 7.373000137329102 203.1280001144409 4.627000137329102 205.79600011444091 C 4.488000137329101 244.01800011444092 32.8720001373291 253.08900011444092 54.6660001373291 269.67500011444093 C 65.75900013732911 278.11700011444094 78.4600001373291 286.53800011444093 88.7350001373291 296.2920001144409 C 111.6130001373291 318.0070001144409 125.8970001373291 341.2980001144409 154.7430001373291 352.71800011444094 C 146.6860001373291 335.1970001144409 131.4820001373291 318.4650001144409 132.38500013732911 294.1620001144409 C 132.5540001373291 289.6280001144409 134.6940001373291 285.10500011444094 134.5140001373291 280.3210001144409 C 133.87300013732911 263.23000011444094 123.5180001373291 250.06700011444093 113.2210001373291 240.92900011444092 C 114.4870001373291 231.54800011444092 114.0280001373291 220.4430001144409 120.6740001373291 216.44200011444093 L 138.7730001373291 216.44200011444093 C 140.1940001373291 195.8300001144409 131.3990001373291 183.81600011444093 129.1910001373291 168.5330001144409 C 125.83300013732911 145.2880001144409 129.6630001373291 108.67700011444092 137.7090001373291 89.75000011444092 C 133.8490001373291 89.11200011444092 133.5090001373291 91.49800011444091 132.3890001373291 92.95300011444091 z M 336.8060001373291 101.46300011444092 C 325.3850001373291 113.19400011444091 319.12600013732913 130.5570001144409 316.5770001373291 149.3720001144409 C 312.0870001373291 182.5140001144409 326.0590001373291 208.15600011444093 343.1930001373291 226.0270001144409 C 351.1240001373291 250.3910001144409 377.1170001373291 256.69200011444093 395.3600001373291 270.7410001144409 C 404.7370001373291 264.6550001144409 423.1220001373291 261.1020001144409 428.3650001373291 253.70800011444092 C 432.5180001373291 247.8490001144409 429.7990001373291 240.5980001144409 436.8830001373291 240.9320001144409 C 442.0190001373291 241.17300011444092 445.1410001373291 250.82300011444093 447.5290001373291 256.9010001144409 C 455.9610001373291 278.3610001144409 465.2000001373291 296.1320001144409 480.5320001373291 306.9400001144409 C 501.1190001373291 264.3440001144409 508.7060001373291 189.43000011444093 487.9850001373291 142.9800001144409 C 463.7660001373291 157.79900011444093 450.7640001373291 183.83300011444092 435.8180001373291 207.92300011444092 C 415.8780001373291 159.3730001144409 372.2880001373291 134.4730001144409 336.8080001373291 101.46300011444092 z M 73.83600013732911 215.3730001144409 C 98.7530001373291 217.71600011444093 99.1380001373291 177.50500011444092 73.83600013732911 181.30500011444093 C 53.920000137329104 184.30500011444093 53.8190001373291 213.49500011444093 73.83600013732911 215.37500011444092 z M 183.4960001373291 287.7730001144409 C 190.6840001373291 280.42000011444094 199.2180001373291 265.5650001144409 205.8540001373291 252.6400001144409 C 215.4220001373291 234.0030001144409 231.9390001373291 202.3900001144409 205.8540001373291 197.27900011444092 C 172.1910001373291 190.6820001144409 146.0950001373291 230.94200011444093 119.6170001373291 219.63600011444092 C 117.3550001373291 224.82700011444092 118.7310001373291 233.65500011444092 116.4240001373291 238.8010001144409 C 133.7970001373291 251.5920001144409 135.4810001373291 280.0730001144409 148.3630001373291 297.3570001144409 C 163.2930001373291 303.05700011444094 175.5730001373291 295.8570001144409 183.4930001373291 287.7570001144409 z M 18.476000137329102 211.1230001144409 C 22.5360001373291 210.57000011444092 25.354000137329102 208.77400011444092 28.058000137329103 206.86400011444093 C 24.5540001373291 199.24400011444092 11.657000137329101 201.4440001144409 18.476000137329102 211.12400011444092 z M 22.7340001373291 212.18300011444092 C 27.0250001373291 212.21500011444093 30.9460001373291 211.87700011444093 32.3160001373291 208.98900011444093 C 27.6090001373291 208.5390001144409 24.854000137329102 210.0390001144409 22.7340001373291 212.17900011444092 z M 28.0570001373291 214.3130001144409 C 30.898000137329102 213.9430001144409 37.5700001373291 218.73700011444092 37.6390001373291 214.3130001144409 C 36.2090001373291 212.45300011444093 28.8480001373291 210.4130001144409 28.0570001373291 214.3130001144409 z M 236.7270001373291 374.0130001144409 C 238.3310001373291 384.40100011444093 243.1780001373291 392.1910001144409 247.37300013732911 399.5650001144409 C 251.3520001373291 406.5580001144409 254.8450001373291 415.88900011444093 261.2130001373291 422.9880001144409 C 276.1420001373291 439.62700011444093 317.9850001373291 440.05500011444093 348.5140001373291 433.63400011444094 C 364.5640001373291 430.2580001144409 386.4600001373291 417.4880001144409 388.9710001373291 405.9530001144409 C 350.7490001373291 417.2840001144409 286.8310001373291 410.1380001144409 300.6050001373291 360.1730001144409 L 298.4760001373291 360.1730001144409 C 278.1860001373291 365.0830001144409 252.3060001373291 364.3930001144409 236.7260001373291 374.0130001144409 z"/>
  <path transform="matrix(1 0 0 1 2.406 2.255)" id="imagebot_4" fill-rule="evenodd" clip-rule="evenodd" d="M424.89,38.523C407.226,39.735 392.777,34.82 378.047,35.329C351.307,36.252 339.882,53.955 324.814,68.333C311.106,67.046 301.872,70.231 293.939,74.721C273.905,66.718 253.036,59.552 225.801,58.752C229.659,48.769 234.599,39.868 236.447,27.877C264.2,15.789 299.457,0.172 338.657,3.39C372.587,6.175 404.747,22.539 424.887,38.523L424.89,38.523z" fill="#FFF56E"/>
  <path transform="matrix(1 0 0 1 2.406 2.255)" id="imagebot_5" fill-rule="evenodd" clip-rule="evenodd" d="M290.75,75.785C265.128,97.179 252.472,151.054 258.81,199.285C259.522,204.703 262.168,209.861 263.069,215.255C272.252,270.267 278.127,326.485 331.206,335.565C310.318,357.869 261.858,363.89 222.616,357.922C213.154,344.066 201.96,329.713 197.065,312.142C194.539,303.078 190.735,286.775 192.806,274.88C194.71,263.944 205.061,254.685 209.841,244.005C214.497,233.601 222.837,219.982 221.552,208.872C219.824,193.924 200.294,189.419 183.225,192.902C186.565,175.365 185.899,154.838 188.548,135.411C193.375,100.006 198.907,75.066 223.681,61.95C252.031,60.564 269.761,69.813 290.761,75.786L290.75,75.785z" fill="#FFF56E"/>
  <path transform="translate(-2.5 0) matrix(1 0 0 1 2.406 2.255)" id="imagebot_6" fill-rule="evenodd" clip-rule="evenodd" d="M135.31,87.497C127.264,106.424 123.434,143.036 126.792,166.28C129,181.563 137.794,193.577 136.374,214.189L118.275,214.189C111.629,218.19 112.088,229.295 110.822,238.676C121.119,247.814 131.474,260.977 132.115,278.068C132.295,282.852 130.155,287.375 129.986,291.909C129.083,316.212 144.287,332.944 152.344,350.465C123.498,339.045 109.214,315.754 86.336,294.039C76.061,284.285 63.359,275.864 52.267,267.422C30.474,250.836 2.089,241.765 2.228,203.543C4.974,200.875 8.492,207.954 11.81,209.932C21.388,215.637 36.288,216.998 50.138,218.449C52.739,217.856 52.406,214.33 56.526,215.255C53.305,212.798 45.545,214.88 40.556,214.191C36.04,206.488 26.475,201.095 28.845,191.834C31.109,182.984 45.943,183.857 50.138,175.864C53.117,177.854 54.96,180.979 59.72,181.187C36.266,211.697 89.989,229.987 93.79,199.277C95.447,185.89 87.131,179.513 76.756,175.855C68.673,147.908 87.964,140.865 103.372,122.623C113.588,110.528 124.099,98.359 129.988,90.683C131.098,89.228 131.438,86.842 135.308,87.49L135.31,87.497z" fill="#FFF56E"/>
  <path transform="matrix(1 0 0 1 2.406 2.255)" id="imagebot_7" fill-rule="evenodd" clip-rule="evenodd" d="M433.41,205.67C448.356,181.58 461.358,155.545 485.577,140.727C506.298,187.173 498.711,262.087 478.124,304.687C462.792,293.879 453.553,276.108 445.121,254.648C442.732,248.57 439.61,238.92 434.475,238.679C427.391,238.345 430.111,245.596 425.957,251.455C420.714,258.85 402.329,262.402 392.952,268.488C374.709,254.438 348.716,248.137 340.785,223.774C323.651,205.903 309.679,180.261 314.169,147.119C316.718,128.304 322.977,110.941 334.398,99.21C369.878,132.219 413.468,157.119 433.408,205.67L433.41,205.67z" fill="#FFF56E"/>
  <path transform="matrix(1 0 0 1 2.406 2.255)" id="imagebot_9" fill-rule="evenodd" clip-rule="evenodd" d="M145.95,295.1C133.068,277.817 131.384,249.335 114.011,236.544C116.319,231.398 114.943,222.57 117.204,217.379C143.682,228.685 169.778,188.425 203.441,195.022C229.526,200.133 213.009,231.747 203.441,250.383C196.805,263.308 188.272,278.163 181.083,285.516C173.173,293.626 160.893,300.826 145.953,295.106L145.95,295.1z" fill="#FFF56E"/>
  <path transform="matrix(1 0 0 1 2.406 2.255)" id="imagebot_10" fill-rule="evenodd" clip-rule="evenodd" d="M25.648,204.61C22.945,206.52 20.127,208.316 16.066,208.869C9.248,199.189 22.145,196.989 25.648,204.609L25.648,204.61z" fill="#FFFFFF"/>
  <path transform="matrix(1 0 0 1 2.406 2.255)" id="imagebot_11" fill-rule="evenodd" clip-rule="evenodd" d="M29.907,206.74C28.537,209.629 24.616,209.966 20.325,209.934C22.445,207.794 25.2,206.294 29.907,206.744L29.907,206.74z" fill="#FFFFFF"/>
  <path transform="matrix(1 0 0 1 2.406 2.255)" id="imagebot_12" fill-rule="evenodd" clip-rule="evenodd" d="M35.23,212.06C35.161,216.484 28.489,211.69 25.648,212.06C26.439,208.16 33.8,210.2 35.23,212.06z" fill="#FFFFFF"/>
  <path transform="matrix(1 0 0 1 2.406 2.255)" id="imagebot_13" fill-rule="evenodd" clip-rule="evenodd" d="M296.07,357.92L298.199,357.92C284.425,407.885 348.344,415.031 386.565,403.7C384.054,415.234 362.158,428.005 346.108,431.381C315.579,437.802 273.736,437.373 258.807,420.735C252.438,413.636 248.945,404.305 244.967,397.312C240.772,389.938 235.925,382.148 234.321,371.76C249.901,362.14 275.781,362.83 296.071,357.92L296.07,357.92z" fill="#FFF56E"/>

  <metadata id="imagebot_26">image/svg+xmllogoabril 2011M Mlogolentesglassesverdeblancogrisnegrologo de un website</metadata>
  <path transform="matrix(0.741953 0 0 0.741953 -75.2697 -67.3717)" label="Capa 1" fill="rgb(255, 255, 255)" stroke="rgb(0, 0, 0)" stroke-width="5.7" stroke-miterlimit="4" stroke-opacity="0.61497" id="imagebot_23" d="M 240.90349964904783 363.85179037231444 C 240.90349964904783 383.57020037231445 224.91857964904784 399.55512037231443 205.20016964904787 399.55512037231443 C 185.48176964904786 399.55512037231443 169.49684964904785 383.57020037231445 169.49684964904785 363.85179037231444 C 169.49684964904785 344.13339037231447 185.48176964904786 328.1484703723145 205.20016964904787 328.1484703723145 C 224.91857964904784 328.1484703723145 240.90349964904783 344.13339037231447 240.90349964904783 363.85179037231444 z"/>
  <path label="Capa 1" opacity="0.83857" fill="rgb(0, 0, 0)" transform="translate(-5 -5) matrix(0.752704 0 0 0.752704 -91.8387 -23.681)" d="M244.28591,306.53854C244.28591,313.28431 238.48085,318.75284 231.31996,318.75284C224.15907,318.75284 218.35402,313.28431 218.35402,306.53854C218.35402,299.79277 224.15907,294.32425 231.31996,294.32425C238.48085,294.32425 244.28591,299.79277 244.28591,306.53854z" id="imagebot_20"/>
  <path label="Capa 1" opacity="0.83857" fill="rgb(0, 0, 0)" id="imagebot_19" d="M244.28591,306.53854C244.28591,313.28431 238.48085,318.75284 231.31996,318.75284C224.15907,318.75284 218.35402,313.28431 218.35402,306.53854C218.35402,299.79277 224.15907,294.32425 231.31996,294.32425C238.48085,294.32425 244.28591,299.79277 244.28591,306.53854z" transform="matrix(0.752704 0 0 0.752704 -20.4644 -23.681)"/>
 </g>
 <metadata>image/svg+xmlOpenclipartstriped tropical fish2006-12-19T11:44:06a tropical fish from a U.S. patent drawinghttps://openclipart.org/detail/2150/striped-tropical-fish-by-johnny_automaticjohnny_automaticanimalexternalsourcefishoceantropicaluspto</metadata>
</svg>