<?xml version="1.0" encoding="UTF-8" standalone="no"?>
<!-- Created with Inkscape (http://www.inkscape.org/) -->

<svg
   xmlns:dc="http://purl.org/dc/elements/1.1/"
   xmlns:cc="http://creativecommons.org/ns#"
   xmlns:rdf="http://www.w3.org/1999/02/22-rdf-syntax-ns#"
   xmlns:svg="http://www.w3.org/2000/svg"
   xmlns="http://www.w3.org/2000/svg"
   xmlns:sodipodi="http://sodipodi.sourceforge.net/DTD/sodipodi-0.dtd"
   xmlns:inkscape="http://www.inkscape.org/namespaces/inkscape"
   width="171.29051mm"
   height="81.743492mm"
   viewBox="0 0 606.93477 289.64232"
   id="svg4805"
   version="1.1"
   inkscape:version="0.92.4 (5da689c313, 2019-01-14)"
   sodipodi:docname="fish.svg">
  <defs
     id="defs4807" />
  <sodipodi:namedview
     id="base"
     pagecolor="#ffffff"
     bordercolor="#666666"
     borderopacity="1.0"
     inkscape:pageopacity="0.0"
     inkscape:pageshadow="2"
     inkscape:zoom="0.76289062"
     inkscape:cx="431.59748"
     inkscape:cy="173.8952"
     inkscape:document-units="px"
     inkscape:current-layer="layer1"
     showgrid="false"
     inkscape:window-width="2558"
     inkscape:window-height="1421"
     inkscape:window-x="74"
     inkscape:window-y="187"
     inkscape:window-maximized="0"
     fit-margin-left="20"
     fit-margin-top="20"
     fit-margin-right="20"
     fit-margin-bottom="20" />
  <metadata
     id="metadata4810">
    <rdf:RDF>
      <cc:Work
         rdf:about="">
        <dc:format>image/svg+xml</dc:format>
        <dc:type
           rdf:resource="http://purl.org/dc/dcmitype/StillImage" />
        <dc:title></dc:title>
      </cc:Work>
    </rdf:RDF>
  </metadata>
  <g
     inkscape:label="1. réteg"
     inkscape:groupmode="layer"
     id="layer1"
     transform="translate(-13.904743,-375.69779)">
    <path
       style="fill:#d7e3f4;fill-rule:evenodd;stroke:#000000;stroke-width:5.43062735px;stroke-linecap:butt;stroke-linejoin:miter;stroke-opacity:1"
       d="m 73.10528,604.26058 c 0,0 -5.54592,5.78003 -6.10946,9.50359 -0.63267,4.17963 0.40784,9.2268 3.39414,12.21892 4.14965,4.15817 11.09869,4.58459 16.97071,4.75179 9.49437,0.27045 18.68598,-3.54679 27.83197,-6.10945 8.06171,-2.25887 23.75899,-8.14594 23.75899,-8.14594 z"
       id="path4324"
       inkscape:connector-curvature="0"
       sodipodi:nodetypes="csssscc" />
    <path
       style="fill:#2c5aa0;fill-rule:evenodd;stroke:#000000;stroke-width:5.43062735px;stroke-linecap:butt;stroke-linejoin:miter;stroke-opacity:1"
       d="m 471.57756,478.67732 c 0,0 18.43008,-15.36656 29.18962,-20.36485 12.74313,-5.91971 26.79786,-9.03554 40.7297,-10.86126 13.01276,-1.70521 26.37233,-1.80161 39.37211,0 10.71392,1.4849 23.5668,1.18741 31.2261,8.82477 3.4995,3.48945 4.53029,9.33465 4.07297,14.2554 -0.42141,4.53419 -3.37051,8.58099 -6.10945,12.21891 -4.62337,6.1409 -9.52896,11.04041 -16.97071,15.61305 -9.91513,6.09241 -24.1059,12.42886 -35.29913,15.61306 -7.21171,2.05158 -22.40134,2.03648 -22.40134,2.03648 0,0 -5.29356,-10.3965 -9.5036,-14.25539 -7.98753,-7.3213 -18.29323,-12.00669 -28.51079,-15.61306 -8.45457,-2.98413 -26.47431,-4.7518 -26.47431,-4.7518 z"
       id="path4380"
       inkscape:connector-curvature="0"
       sodipodi:nodetypes="csssssssscsscc" />
    <path
       style="fill:#2c5aa0;fill-rule:evenodd;stroke:#000000;stroke-width:5.43062735px;stroke-linecap:butt;stroke-linejoin:miter;stroke-opacity:1"
       d="m 208.87096,444.7359 c 0,0 5.47353,-16.9744 10.18243,-24.43782 4.70265,-7.45359 11.0737,-13.8184 17.64954,-19.68603 6.41802,-5.72665 21.04368,-14.93422 21.04368,-14.93422 0,0 30.43568,0.0543 45.4815,2.03648 15.62185,2.05712 30.84488,6.47961 46.16033,10.18243 12.9634,3.13412 38.69322,10.18242 38.69322,10.18242 0,0 -1.08862,12.11992 -3.39414,17.64954 -2.00461,4.80806 -5.74305,8.69775 -8.82477,12.89774 -2.38328,3.24822 -7.46711,9.5036 -7.46711,9.5036 0,0 -38.87118,-3.9592 -58.37925,-4.7518 -23.28718,-0.94612 -46.6184,-0.50668 -69.91932,0 -10.41605,0.22592 -31.22611,1.35766 -31.22611,1.35766 z"
       id="path4328"
       inkscape:connector-curvature="0"
       sodipodi:nodetypes="csscsscsscssc" />
    <path
       style="fill:#2c5aa0;fill-rule:evenodd;stroke:#000000;stroke-width:5.43062735px;stroke-linecap:butt;stroke-linejoin:miter;stroke-opacity:1"
       d="m 206.83448,611.04886 c 0,0 11.92446,22.9501 20.36485,32.58376 4.4485,5.07737 9.67113,9.69422 15.61305,12.89774 2.70907,1.46057 5.75093,2.86917 8.82477,2.71532 4.65904,-0.23352 8.96586,-2.92054 12.89774,-5.43063 5.67066,-3.62006 10.26242,-8.73554 14.93423,-13.57657 2.67588,-2.77271 6.48226,-5.09941 7.46711,-8.82477 0.94151,-3.56113 0.0988,-7.86007 -2.03649,-10.86125 -5.28872,-7.43176 -15.98516,-8.80479 -23.75899,-13.57657 -8.77171,-5.3843 -25.79548,-16.97071 -25.79548,-16.97071 0,0 -9.98291,7.20432 -14.93423,10.86125 -4.55032,3.36075 -13.57656,10.18243 -13.57656,10.18243 z"
       id="path4342"
       inkscape:connector-curvature="0"
       sodipodi:nodetypes="csssssssscsc" />
    <path
       style="fill:#87aade;fill-rule:evenodd;stroke:#000000;stroke-width:5.43062735px;stroke-linecap:butt;stroke-linejoin:miter;stroke-opacity:1"
       d="m 45.95214,557.42142 c 0,0 13.68214,-28.24372 23.759,-40.05088 12.41305,-14.54442 28.18517,-26.09341 44.12384,-36.65674 18.47456,-12.24394 37.9722,-23.72038 59.05807,-30.54727 21.76829,-7.04787 45.07416,-8.36773 67.88285,-10.18243 22.78305,-1.81269 45.75216,-2.12044 68.56167,-0.67883 16.63928,1.05164 33.13269,3.90821 49.55447,6.78829 19.14644,3.35797 38.31552,6.93252 57.02159,12.21891 26.7901,7.57089 53.21564,16.72687 78.74409,27.83196 10.76579,4.68316 22.4513,8.4922 31.22611,16.29188 4.50324,4.00281 9.66559,8.93138 10.18243,14.93423 0.23406,2.724 -3.39415,7.46711 -3.39415,7.46711 0,0 -64.05522,4.975 -95.7148,10.18243 -17.38833,2.86009 -34.59473,6.88592 -51.59096,11.54008 -19.04836,5.21612 -37.62355,12.03232 -56.34276,18.32837 -26.79157,9.0112 -53.91614,17.18744 -80.10175,27.83196 -10.87793,4.42195 -20.74397,11.2849 -31.90494,14.93423 -13.3708,4.37192 -41.40853,8.14594 -41.40853,8.14594 0,0 -51.15896,-10.89886 -74.67113,-21.83992 -19.95187,-9.28432 -54.9851,-36.53932 -54.9851,-36.53932 z"
       id="path4326"
       inkscape:connector-curvature="0"
       sodipodi:nodetypes="csssssssssscssssscac" />
    <path
       style="fill:none;fill-rule:evenodd;stroke:#000000;stroke-width:5.43100023;stroke-linecap:round;stroke-linejoin:miter;stroke-miterlimit:4;stroke-dasharray:none;stroke-opacity:1"
       d="m 280.14794,388.39314 c 0,0 -12.15407,8.16533 -16.97071,13.57657 -2.83858,3.18897 -5.15133,5.91678 -7.46711,9.5036 -2.65514,4.11245 -7.46711,13.57656 -7.46711,13.57656"
       id="path4330"
       inkscape:connector-curvature="0"
       sodipodi:nodetypes="cssc" />
    <path
       style="fill:none;fill-rule:evenodd;stroke:#000000;stroke-width:5.43100023;stroke-linecap:round;stroke-linejoin:miter;stroke-miterlimit:4;stroke-dasharray:none;stroke-opacity:1"
       d="m 303.22811,389.07197 c 0,0 -10.5157,8.50322 -14.93422,13.57657 -3.42119,3.9283 -6.03973,8.49545 -8.82477,12.89774 -3.36118,5.31311 -9.5036,16.29188 -9.5036,16.29188"
       id="path4332"
       inkscape:connector-curvature="0"
       sodipodi:nodetypes="cssc" />
    <path
       style="fill:none;fill-rule:evenodd;stroke:#000000;stroke-width:5.43100023;stroke-linecap:round;stroke-linejoin:miter;stroke-miterlimit:4;stroke-dasharray:none;stroke-opacity:1"
       d="m 325.62945,393.14494 c 0,0 -9.61585,9.02347 -13.57657,14.2554 -4.28639,5.66208 -10.86125,18.32836 -10.86125,18.32836"
       id="path4334"
       inkscape:connector-curvature="0"
       sodipodi:nodetypes="csc" />
    <path
       style="fill:none;fill-rule:evenodd;stroke:#000000;stroke-width:5.43100023;stroke-linecap:round;stroke-linejoin:miter;stroke-miterlimit:4;stroke-dasharray:none;stroke-opacity:1"
       d="m 350.06727,397.89674 c 0,0 -8.51696,8.74276 -12.21891,13.57657 -2.78575,3.63754 -7.46711,11.54008 -7.46711,11.54008"
       id="path4336"
       inkscape:connector-curvature="0"
       sodipodi:nodetypes="csc" />
    <path
       style="fill:none;fill-rule:evenodd;stroke:#000000;stroke-width:5.43100023;stroke-linecap:round;stroke-linejoin:miter;stroke-miterlimit:4;stroke-dasharray:none;stroke-opacity:1"
       d="m 368.39564,404.75034 -7.46711,6.72297 -5.43063,6.78828"
       id="path4338"
       inkscape:connector-curvature="0"
       sodipodi:nodetypes="ccc" />
    <path
       style="fill:none;fill-rule:evenodd;stroke:#000000;stroke-width:5.43100023;stroke-linecap:round;stroke-linejoin:miter;stroke-miterlimit:4;stroke-dasharray:none;stroke-opacity:1"
       d="m 231.2723,499.721 c 0,0 8.95575,24.56838 11.54008,37.33556 1.35353,6.68652 2.39697,13.5523 2.03649,20.36486 -0.29326,5.53951 -1.37314,11.12594 -3.39415,16.29188 -1.92276,4.91493 -8.14594,13.57657 -8.14594,13.57657 0,0 -6.91161,6.75705 -10.86125,9.50359 -5.07063,3.52611 -16.29188,8.82477 -16.29188,8.82477"
       id="path4340"
       inkscape:connector-curvature="0"
       sodipodi:nodetypes="cssscsc" />
    <path
       style="fill:none;fill-rule:evenodd;stroke:#000000;stroke-width:5.43100023;stroke-linecap:round;stroke-linejoin:miter;stroke-miterlimit:4;stroke-dasharray:none;stroke-opacity:1"
       d="m 234.66644,625.30426 24.43782,31.90493"
       id="path4344"
       inkscape:connector-curvature="0" />
    <path
       style="fill:none;fill-rule:evenodd;stroke:#000000;stroke-width:5.43100023;stroke-linecap:round;stroke-linejoin:miter;stroke-miterlimit:4;stroke-dasharray:none;stroke-opacity:1"
       d="m 260.46192,642.27497 9.5036,6.78828"
       id="path4346"
       inkscape:connector-curvature="0" />
    <path
       style="fill:none;fill-rule:evenodd;stroke:#000000;stroke-width:5.43062735px;stroke-linecap:round;stroke-linejoin:miter;stroke-opacity:1"
       d="m 296.43983,463.74309 c 0,0 -2.60361,25.22196 -6.10946,37.33557 -2.2549,7.79154 -5.65317,15.26218 -9.5036,22.40133 -4.64731,8.61684 -16.29188,24.43783 -16.29188,24.43783"
       id="path4348"
       inkscape:connector-curvature="0"
       sodipodi:nodetypes="cssc" />
    <path
       style="fill:none;fill-rule:evenodd;stroke:#000000;stroke-width:5.43062735px;stroke-linecap:round;stroke-linejoin:miter;stroke-opacity:1"
       d="m 328.34476,465.10075 c 0,0 -8.45885,29.79541 -14.25539,44.12385 -5.19929,12.85207 -10.38347,25.97393 -18.32837,37.33556 -4.3104,6.1642 -15.61306,16.29188 -15.61306,16.29188"
       id="path4350"
       inkscape:connector-curvature="0"
       sodipodi:nodetypes="cssc" />
    <path
       style="fill:none;fill-rule:evenodd;stroke:#000000;stroke-width:5.43062735px;stroke-linecap:round;stroke-linejoin:miter;stroke-opacity:1"
       d="m 365.0015,467.81606 c 0,0 -9.36007,28.28423 -14.93423,42.08737 -3.07134,7.60559 -5.80279,15.46615 -10.18243,22.40133 -3.00107,4.75235 -10.86125,12.89774 -10.86125,12.89774"
       id="path4352"
       inkscape:connector-curvature="0"
       sodipodi:nodetypes="cssc" />
    <path
       style="fill:none;fill-rule:evenodd;stroke:#000000;stroke-width:5.43062735px;stroke-linecap:round;stroke-linejoin:miter;stroke-opacity:1"
       d="m 397.58526,477.99849 c 0,0 -10.94956,22.6487 -17.64954,33.26259 -4.6623,7.38593 -15.61305,21.04368 -15.61305,21.04368"
       id="path4354"
       inkscape:connector-curvature="0"
       sodipodi:nodetypes="csc" />
    <path
       style="fill:none;fill-rule:evenodd;stroke:#000000;stroke-width:5.43100023;stroke-linecap:round;stroke-linejoin:miter;stroke-miterlimit:4;stroke-dasharray:none;stroke-opacity:1"
       d="m 417.27128,481.39263 c 0,0 -6.06481,18.13042 -11.54008,25.79548 -2.69859,3.77798 -10.18242,9.5036 -10.18242,9.5036"
       id="path4356"
       inkscape:connector-curvature="0"
       sodipodi:nodetypes="csc" />
    <path
       style="fill:none;fill-rule:evenodd;stroke:#000000;stroke-width:5.43100023;stroke-linecap:round;stroke-linejoin:miter;stroke-miterlimit:4;stroke-dasharray:none;stroke-opacity:1"
       d="m 396.90643,484.78677 c 19.0072,19.0072 19.68603,19.0072 19.68603,19.0072"
       id="path4358"
       inkscape:connector-curvature="0" />
    <path
       style="fill:none;fill-rule:evenodd;stroke:#000000;stroke-width:5.43100023;stroke-linecap:round;stroke-linejoin:miter;stroke-miterlimit:4;stroke-dasharray:none;stroke-opacity:1"
       d="m 364.32267,476.64083 c 0,0 7.77899,8.52343 11.54008,12.89774 4.40109,5.11853 8.51441,10.47938 12.89774,15.61306 3.33115,3.90136 10.18243,11.54008 10.18243,11.54008"
       id="path4360"
       inkscape:connector-curvature="0"
       sodipodi:nodetypes="cssc" />
    <path
       style="fill:none;fill-rule:evenodd;stroke:#000000;stroke-width:5.43100023;stroke-linecap:round;stroke-linejoin:miter;stroke-miterlimit:4;stroke-dasharray:none;stroke-opacity:1"
       d="m 313.41054,468.49489 c 0,0 19.94626,16.73557 28.51079,26.47431 6.42726,7.30843 11.00777,16.06711 16.97071,23.759 4.52643,5.83879 14.2554,16.97071 14.2554,16.97071"
       id="path4362"
       inkscape:connector-curvature="0"
       sodipodi:nodetypes="cssc" />
    <path
       style="fill:none;fill-rule:evenodd;stroke:#000000;stroke-width:5.43100023;stroke-linecap:round;stroke-linejoin:miter;stroke-miterlimit:4;stroke-dasharray:none;stroke-opacity:1"
       d="m 269.28669,465.10075 c 0,0 19.20856,17.89528 28.51079,27.15314 5.78492,5.75733 12.05138,11.13707 16.97071,17.64954 3.7895,5.0167 5.91798,11.12757 9.5036,16.29188 3.66834,5.28335 12.21891,14.93422 12.21891,14.93422"
       id="path4364"
       inkscape:connector-curvature="0"
       sodipodi:nodetypes="csssc" />
    <path
       style="fill:none;fill-rule:evenodd;stroke:#000000;stroke-width:5.43100023;stroke-linecap:round;stroke-linejoin:miter;stroke-miterlimit:4;stroke-dasharray:none;stroke-opacity:1"
       d="m 248.24301,497.00569 c 0,0 16.99591,12.33529 24.43782,19.68602 4.80269,4.74382 9.24765,9.93457 12.89774,15.61305 4.76076,7.40629 11.54008,23.759 11.54008,23.759"
       id="path4366"
       inkscape:connector-curvature="0"
       sodipodi:nodetypes="cssc" />
    <path
       style="fill:#2c5aa0;fill-rule:evenodd;stroke:#000000;stroke-width:5.43062735px;stroke-linecap:butt;stroke-linejoin:miter;stroke-opacity:1"
       d="m 363.64384,549.27547 c 1.31883,5.72448 2.51134,11.5403 4.7518,16.97071 3.36129,8.14703 7.38875,16.20098 12.89774,23.08017 3.6061,4.50297 7.38044,9.85501 12.89774,11.54008 6.33526,1.93488 13.60014,-0.0999 19.68602,-2.71531 3.99341,-1.7163 7.89733,-4.4485 10.18243,-8.14594 1.70326,-2.75588 3.01144,-6.41395 2.03648,-9.5036 -2.60181,-8.24527 -12.23493,-12.27463 -19.00719,-17.64954 -9.19248,-7.29577 -18.23784,-15.46816 -29.18962,-19.68602 -2.9862,-1.15005 -6.31159,-1.13077 -9.5036,-1.35766 -2.03138,-0.14445 -6.10946,0 -6.10946,0 0,0 0.78972,5.00188 1.35766,7.46711 z"
       id="path4368"
       inkscape:connector-curvature="0"
       sodipodi:nodetypes="sssssssssscs" />
    <path
       style="fill:none;fill-rule:evenodd;stroke:#000000;stroke-width:5.43100023;stroke-linecap:round;stroke-linejoin:miter;stroke-miterlimit:4;stroke-dasharray:none;stroke-opacity:1"
       d="m 118.58678,584.57455 c 0,0 5.31946,-14.538 10.18243,-20.36485 4.3496,-5.21172 10.44814,-8.76471 16.29188,-12.21891 6.6258,-3.91652 13.83447,-6.80789 21.04368,-9.5036 8.85105,-3.30964 27.15314,-8.14594 27.15314,-8.14594 v 0"
       id="path4370"
       inkscape:connector-curvature="0"
       sodipodi:nodetypes="cssscc" />
    <path
       style="fill:#ffffff;fill-rule:evenodd;stroke:#000000;stroke-width:5.43062735px;stroke-linecap:butt;stroke-linejoin:miter;stroke-opacity:1"
       d="m 134.87866,558.77907 c 0,0 -9.63844,-12.76925 -10.86125,-20.36485 -1.05827,-6.57415 0.75752,-13.57146 3.39414,-19.68602 2.68789,-6.2335 5.92845,-13.74031 12.21891,-16.29189 4.03333,-1.63603 9.41644,-0.57564 12.89774,2.03649 3.40039,2.55174 4.50324,7.39114 5.43063,11.54008 1.03665,4.63738 1.19197,9.65555 0,14.2554 -1.16873,4.51035 -1.32328,5.73588 -2.71531,10.18242 -0.67938,2.17025 -4.7518,8.82477 -4.7518,8.82477 0,0 -5.11511,2.00005 -7.46712,3.39415 -2.91977,1.73068 -8.14594,6.10945 -8.14594,6.10945 z"
       id="path4372"
       inkscape:connector-curvature="0"
       sodipodi:nodetypes="cssssssscsc" />
    <path
       style="fill:#000000;fill-rule:evenodd;stroke:#000000;stroke-width:5.43062735px;stroke-linecap:butt;stroke-linejoin:miter;stroke-opacity:1"
       d="m 126.73272,536.37773 c -2.6799,-6.69987 -1.35765,-8.82476 4.07297,-9.50359 5.43063,-0.67883 4.93177,1.08498 6.78829,2.03648 3.06716,1.57195 3.38002,6.12743 4.07297,9.5036 0.59128,2.88149 0.16292,5.88767 0,8.82477 -0.1135,2.04588 -0.67883,6.10945 -0.67883,6.10945 l -6.10946,3.39415 z"
       id="path4374"
       inkscape:connector-curvature="0"
       sodipodi:nodetypes="sssssccs" />
    <path
       style="fill:#d7e3f4;fill-rule:evenodd;stroke:#000000;stroke-width:5.43062735px;stroke-linecap:butt;stroke-linejoin:miter;stroke-opacity:1"
       d="m 178.32368,616.47949 c 0,0 -17.83516,-3.3911 -26.47431,-6.10946 -16.75392,-5.27173 -33.04574,-12.07684 -48.87564,-19.68602 -12.87558,-6.18907 -24.80955,-14.17454 -37.33556,-21.04368 -6.74566,-3.69918 -13.14321,-8.20867 -20.36486,-10.86126 -4.99927,-1.83631 -10.50294,-4.89495 -15.613052,-3.39414 -3.37736,0.99196 -6.61331,4.05223 -7.46711,7.46711 -1.31943,5.27765 1.84277,11.01619 4.7518,15.61306 3.59762,5.68499 9.212352,10.03797 14.934222,13.57656 10.11411,6.25489 21.90036,9.38836 33.26259,12.89774 13.32041,4.11419 27.0114,7.02045 40.72971,9.5036 12.12414,2.19457 24.33649,4.60376 36.65673,4.7518 8.6454,0.10373 25.79548,-2.71531 25.79548,-2.71531 z"
       id="path4322"
       inkscape:connector-curvature="0"
       sodipodi:nodetypes="csssssssssssc" />
    <path
       style="fill:none;fill-rule:evenodd;stroke:#000000;stroke-width:5.43062735px;stroke-linecap:round;stroke-linejoin:miter;stroke-opacity:1"
       d="m 155.98766,509.63596 c 0,0 -1.33428,-7.9273 -4.00764,-11.17463 -1.45295,-1.76489 -7.20207,-6.61005 -7.20207,-6.61005 v 0"
       id="path4376"
       inkscape:connector-curvature="0"
       sodipodi:nodetypes="cscc" />
    <path
       style="fill:#2c5aa0;fill-rule:evenodd;stroke:#000000;stroke-width:5.43062735px;stroke-linecap:butt;stroke-linejoin:miter;stroke-opacity:1"
       d="m 459.35865,532.98359 c 0,0 9.70442,15.93183 16.29188,22.40134 9.85322,9.67673 23.59032,18.47244 35.29908,25.79548 9.87581,6.17669 18.32891,10.72391 29.18962,14.93423 8.23897,3.19396 16.98048,5.49546 25.79553,6.10945 7.25494,0.50505 15.91837,2.34565 21.72251,-2.03648 3.48766,-2.63315 4.26375,-7.8761 4.7518,-12.21892 0.68969,-6.13747 0.095,-12.82871 -2.71531,-18.32836 -5.89777,-11.5415 -17.8249,-18.91607 -27.83202,-27.15314 -8.91682,-7.33955 -28.5108,-19.68602 -28.5108,-19.68602 l -65.84635,8.82477 z"
       id="path4378"
       inkscape:connector-curvature="0"
       sodipodi:nodetypes="cssssssssccc" />
    <path
       style="fill:none;fill-rule:evenodd;stroke:#000000;stroke-width:5.43100023;stroke-linecap:round;stroke-linejoin:miter;stroke-miterlimit:4;stroke-dasharray:none;stroke-opacity:1"
       d="m 533.35094,475.96201 67.30205,-25.39737"
       id="path4382"
       inkscape:connector-curvature="0"
       sodipodi:nodetypes="cc" />
    <path
       style="fill:none;fill-rule:evenodd;stroke:#000000;stroke-width:5.43100023;stroke-linecap:round;stroke-linejoin:miter;stroke-miterlimit:4;stroke-dasharray:none;stroke-opacity:1"
       d="m 560.50408,477.99849 52.26984,-14.2554"
       id="path4384"
       inkscape:connector-curvature="0" />
    <path
       style="fill:none;fill-rule:evenodd;stroke:#000000;stroke-width:5.43100023;stroke-linecap:round;stroke-linejoin:miter;stroke-miterlimit:4;stroke-dasharray:none;stroke-opacity:1"
       d="m 554.39462,568.28267 38.22984,20.58024"
       id="path4386"
       inkscape:connector-curvature="0"
       sodipodi:nodetypes="cc" />
    <path
       style="fill:none;fill-rule:evenodd;stroke:#000000;stroke-width:5.43100023;stroke-linecap:round;stroke-linejoin:miter;stroke-miterlimit:4;stroke-dasharray:none;stroke-opacity:1"
       d="m 535.38743,575.74978 44.98545,27.15314"
       id="path4388"
       inkscape:connector-curvature="0"
       sodipodi:nodetypes="cc" />
  </g>
</svg>
