<?xml version="1.0" encoding="UTF-8" standalone="no"?>
<svg
   xmlns:dc="http://purl.org/dc/elements/1.1/"
   xmlns:cc="http://creativecommons.org/ns#"
   xmlns:rdf="http://www.w3.org/1999/02/22-rdf-syntax-ns#"
   xmlns:svg="http://www.w3.org/2000/svg"
   xmlns="http://www.w3.org/2000/svg"
   xmlns:sodipodi="http://sodipodi.sourceforge.net/DTD/sodipodi-0.dtd"
   xmlns:inkscape="http://www.inkscape.org/namespaces/inkscape"
   width="305"
   height="48"
   version="1.1"
   id="svg15"
   sodipodi:docname="waves.svg"
   inkscape:version="0.92.4 (5da689c313, 2019-01-14)">
  <defs
     id="defs19" />
  <sodipodi:namedview
     pagecolor="#ffffff"
     bordercolor="#666666"
     borderopacity="1"
     objecttolerance="10"
     gridtolerance="10"
     guidetolerance="10"
     inkscape:pageopacity="0"
     inkscape:pageshadow="2"
     inkscape:window-width="1473"
     inkscape:window-height="1185"
     id="namedview17"
     showgrid="false"
     inkscape:zoom="2.7812867"
     inkscape:cx="153.69521"
     inkscape:cy="86.229567"
     inkscape:window-x="364"
     inkscape:window-y="383"
     inkscape:window-maximized="0"
     inkscape:current-layer="g13" />
  <title
     id="title2">wave pattern</title>
  <metadata
     id="metadata18081">image/svg+xmlPublic Domainclker.comMohamed Ibrahimmap symbolsmap symbols<rdf:RDF>
  <cc:Work
     rdf:about="">
    <dc:format>image/svg+xml</dc:format>
    <dc:type
       rdf:resource="http://purl.org/dc/dcmitype/StillImage" />
    <dc:title>wave pattern</dc:title>
  </cc:Work>
</rdf:RDF>
</metadata>
  <g
     id="g13"
     transform="translate(0,-432)">
    <title
       id="title5">Layer 1</title>
    <ellipse
       cx="257"
       cy="244"
       id="svg_3"
       ry="11"
       rx="0"
       style="fill:#0000ff" />
    <ellipse
       cx="258"
       cy="245"
       id="svg_4"
       ry="5"
       rx="0"
       style="fill:#0000ff" />
    <path
       style="fill:#00a9ff;fill-rule:nonzero"
       inkscape:connector-curvature="0"
       id="svg_1"
       d="m 304.8538,472.85802 c -6.83786,6.62585 -16.06195,9.22351 -26.29251,9.22351 -12.98724,0 -24.80786,-5.30078 -31.59329,-15.31989 -6.73184,10.23114 -18.60602,15.31989 -31.75229,15.31989 -12.98666,0 -24.70184,-5.4068 -31.48669,-15.4259 -6.73243,10.33715 -18.60605,15.4259 -31.91129,15.4259 -9.59454,0 -18.39404,-2.17365 -25.02045,-8.05747 l -5.03578,-36.04602 c 6.89144,9.1175 17.81099,15.00132 30.05623,15.00132 13.30524,0 25.17886,-6.51984 31.91129,-16.85639 6.78485,10.01853 18.50003,16.85639 31.48669,16.85639 13.14627,0 25.02045,-6.51984 31.75229,-16.7504 6.78543,10.01855 18.60605,16.7504 31.59329,16.7504 13.25226,0 24.96744,-6.83786 31.6463,-17.17441 z" />
    <path
       style="fill:#00a9ff;fill-rule:nonzero"
       inkscape:connector-curvature="0"
       d="m 177.8538,471.85802 c -6.83786,6.62585 -16.06195,9.22351 -26.29251,9.22351 -12.98724,0 -24.80786,-5.30078 -31.59329,-15.31989 -6.73184,10.23114 -18.60602,15.31989 -31.752281,15.31989 -12.98666,0 -24.70184,-5.4068 -31.48669,-15.4259 -6.73243,10.33715 -18.60605,15.4259 -31.91129,15.4259 -9.59454,0 -18.3940401,-2.17365 -25.02045007,-8.05747 L -5.2384911,436.97804 c 6.89144,9.1175 17.8110101,15.00132 30.0562301,15.00132 13.30524,0 25.17887,-6.51984 31.91129,-16.85639 6.78485,10.01853 18.50003,16.85639 31.48669,16.85639 13.146261,0 25.020441,-6.51984 31.752281,-16.7504 6.78543,10.01855 18.60605,16.7504 31.59329,16.7504 13.25226,0 24.96744,-6.83786 31.6463,-17.17441 z"
       id="path6712" />
  </g>
</svg>
